<?xml version="1.0" encoding="utf-8"?>
<!-- Generator: Adobe Illustrator 25.2.2, SVG Export Plug-In . SVG Version: 6.00 Build 0)  -->
<svg version="1.1" id="Calque_1" xmlns="http://www.w3.org/2000/svg" xmlns:xlink="http://www.w3.org/1999/xlink" x="0px" y="0px"
	 viewBox="0 0 60.6 60.6" style="enable-background:new 0 0 60.6 60.6;" xml:space="preserve">
<style type="text/css">
	.st0{fill:#FFFFFF;}
</style>
<g id="Calque_2_1_">
	<g id="Calque_1-2">
		<path class="st0" d="M57.1,40.3c-3.1-3.1-7.6-4.2-11.7-3L38.1,30l11.7-11.7h3.7c0.6,0,1.2-0.4,1.5-1l4.8-9.5
			c0.3-0.7,0.2-1.5-0.3-2L54.7,1c-0.5-0.5-1.3-0.6-2-0.3l-9.5,4.9c-0.6,0.3-0.9,0.9-0.9,1.5v3.7L30.6,22.5l-7.2-7.2
			c1.8-6.3-1.8-12.9-8.1-14.8c-2.9-0.8-5.9-0.6-8.6,0.8C5.8,1.6,5.4,2.7,5.8,3.5C5.9,3.7,6,3.9,6.2,4l4.3,4.3l-2.2,2.2L4,6.2
			c-0.7-0.7-1.8-0.7-2.4,0C1.4,6.3,1.3,6.5,1.2,6.6c-2.9,5.9-0.5,13,5.4,15.9c2.7,1.3,5.7,1.6,8.6,0.8l3.8,3.9L3.5,42.7
			c-4,3.9-4,10.4-0.1,14.3s10.4,4,14.3,0.1c0,0,0,0,0.1-0.1l11.9-11.9c0.7-0.7,0.7-1.8,0.1-2.5c-0.7-0.7-1.8-0.7-2.5-0.1
			c0,0,0,0-0.1,0.1L15.4,54.6c-2.6,2.6-6.8,2.6-9.4,0c0,0,0,0,0,0c-2.6-2.6-2.6-6.8,0-9.4c0,0,0,0,0,0l16.8-16.8l0,0
			c0.7-0.7,0.7-1.8,0-2.5l-5.9-5.9c-0.5-0.5-1.3-0.7-1.9-0.4c-4.3,1.7-9.2-0.4-10.9-4.7c-0.5-1.4-0.7-2.9-0.5-4.3L7,14.1
			c0.3,0.3,0.8,0.5,1.2,0.5c0.5,0,0.9-0.2,1.2-0.5l4.7-4.6c0.7-0.7,0.7-1.8,0-2.5l-3.5-3.5c4.6-0.7,8.9,2.5,9.6,7.1
			c0.2,1.5,0,3-0.5,4.3c-0.3,0.6-0.1,1.4,0.4,1.9l23.6,23.6c0.5,0.5,1.2,0.6,1.9,0.4c4.3-1.7,9.2,0.4,10.9,4.7
			c0.5,1.4,0.7,2.9,0.5,4.3l-3.5-3.5c-0.7-0.7-1.8-0.7-2.5,0l-4.6,4.6c-0.7,0.7-0.7,1.8,0,2.5l3.5,3.5c-4.6,0.7-8.9-2.5-9.6-7.1
			c-0.2-1.5,0-3,0.5-4.4c0.3-0.6,0.1-1.4-0.4-1.9L27.8,31c-0.7-0.7-1.8-0.7-2.5-0.1c-0.7,0.7-0.7,1.8-0.1,2.5c0,0,0,0,0.1,0.1
			l11.9,11.9c-1.8,6.3,1.8,12.9,8.1,14.7c2.9,0.8,5.9,0.6,8.6-0.7c0.5-0.2,0.9-0.7,1-1.3c0.1-0.6-0.1-1.1-0.5-1.5l-4.3-4.3l2.2-2.2
			l4.3,4.3c0.4,0.4,1,0.6,1.5,0.5c0.5-0.1,1-0.4,1.2-0.9C61.6,49.4,60.7,43.9,57.1,40.3z M45.2,12.7c0.3-0.3,0.5-0.8,0.5-1.2V8.2
			l7.4-3.8l3.1,3.1l-3.8,7.4h-3.3c-0.5,0-0.9,0.2-1.2,0.5L35.7,27.5L33,24.9L45.2,12.7z"/>
		<path class="st0" d="M8.4,49.9c0,1.3,1,2.3,2.3,2.3s2.3-1,2.3-2.3c0-1.3-1-2.3-2.3-2.3c0,0,0,0,0,0C9.4,47.6,8.4,48.6,8.4,49.9z"
			/>
	</g>
</g>
</svg>
