<svg xmlns="http://www.w3.org/2000/svg" width="36" height="22" viewBox="0 0 36 22">
  <g id="CarteB__minimize" data-name="CarteB+_minimize" transform="translate(0 -0.25)">
    <rect id="Rectangle_5070" data-name="Rectangle 5070" width="36" height="22" rx="2" transform="translate(0 0.25)" fill="#b5b8b5"/>
    <path id="Tracé_10715" data-name="Tracé 10715" d="M479.274,344.69H475.6a4.255,4.255,0,1,0,0,8.51h3.679a4.255,4.255,0,0,0,0-8.507Zm-.8,7.314h-1.581a2.756,2.756,0,0,1-2.757-2.757V347.12a2.755,2.755,0,0,1,1.454-2.429v1.8h2.885a2.755,2.755,0,1,1,0,5.511Z" transform="translate(-466.558 -339.443)" fill="#fff"/>
    <path id="Tracé_10716" data-name="Tracé 10716" d="M543.267,397.6H540.43v1.3a1.3,1.3,0,0,0,1.3,1.3h1.538a1.3,1.3,0,0,0,0-2.59Z" transform="translate(-531.387 -389.09)" fill="#fff"/>
    <rect id="Rectangle_5071" data-name="Rectangle 5071" width="12" height="1" rx="0.5" transform="translate(4 20.25)" fill="#434748"/>
    <rect id="Rectangle_5072" data-name="Rectangle 5072" width="5" height="1" rx="0.5" transform="translate(17 20.25)" fill="#434748"/>
    <rect id="Rectangle_5073" data-name="Rectangle 5073" width="6" height="2" rx="1" transform="translate(4 17.25)" fill="#434748"/>
    <rect id="Rectangle_5074" data-name="Rectangle 5074" width="13" height="2" rx="1" transform="translate(12 17.25)" fill="#434748"/>
    <path id="path160" d="M836.719,293.653a.517.517,0,1,1,.508-.517.509.509,0,0,1-.508.517m0-1.3a.787.787,0,1,0,.784.787.778.778,0,0,0-.784-.787" transform="translate(-808.663 -290.33)" fill="#fff"/>
    <path id="path7397" d="M891.015,293.3a.763.763,0,1,0-1.526.018.8.8,0,0,0,.221.551.74.74,0,0,0,.539.235.792.792,0,0,0,.711-.427l0-.01h-.308a.533.533,0,0,1-.392.167.5.5,0,0,1-.482-.409h1.23c0-.029.006-.088.006-.128m-1.227-.123a.475.475,0,0,1,.925,0Z" transform="translate(-858.92 -290.517)" fill="#fff"/>
    <path id="path7299" d="M864.806,292.6c-.277,0-.418.149-.418.442v.87H864.1v-.89a.685.685,0,0,1,.094-.37.749.749,0,0,1,1.217,0,.679.679,0,0,1,.094.37v.89h-.284v-.87c0-.294-.14-.442-.417-.442" transform="translate(-835.1 -290.323)" fill="#fff"/>
    <path id="path7401" d="M915.288,292.35l-.6,1.462-.148.361-.082.2h-.294l.229-.562-.613-1.462h.313l.449,1.1.45-1.1Z" transform="translate(-881.713 -290.33)" fill="#fff"/>
    <path id="Tracé_10717" data-name="Tracé 10717" d="M439.044,290.007v-.957h.308v.37h.482a.559.559,0,1,1,0,1.119h-.241a.54.54,0,0,1-.549-.53m.308-.028a.247.247,0,0,0,.263.261h.2a.263.263,0,1,0,0-.527h-.459Zm1.75.558a.559.559,0,0,1,0-1.119h.314a.559.559,0,0,1,0,1.119Zm.555-.558a.267.267,0,0,0-.263-.266h-.269a.265.265,0,1,0,0,.529h.269a.265.265,0,0,0,.263-.263m.507,0v-.564h.308v.561a.265.265,0,0,0,.263.263h.44v-.824h.308v1.119h-.759a.527.527,0,0,1-.561-.558m1.908.558h-.308V289.05h.308Zm3.027-.561v.561h-.308v-.561a.265.265,0,0,0-.263-.263h-.438v.824h-.308v-1.119h.759a.56.56,0,0,1,.561.558m.185-.057a.514.514,0,0,1,.561-.5h.779v1.11c0,.247-.15.382-.425.382h-.58v-.283h.594a.1.1,0,0,0,.1-.1v-.1h-.47a.515.515,0,0,1-.561-.5m1.03.209v-.418h-.432c-.145,0-.263.062-.263.207s.118.209.263.209Zm1.747.408h-.685a.56.56,0,1,1-.017-1.119h.185a.481.481,0,0,1,.521.493v.185h-.941a.249.249,0,0,0,.263.153h.674Zm-.937-.694h.637c0-.085-.065-.156-.218-.156h-.185a.229.229,0,0,0-.235.156m2.005-.428v.295h-.294a.264.264,0,0,0-.263.263v.561h-.308v-.561a.527.527,0,0,1,.561-.558Zm-6.319,0a.559.559,0,0,0,0,1.117h.74v-1.117Zm.432.821h-.409a.261.261,0,0,1-.263-.26.266.266,0,0,1,.263-.266h.408Zm-8.006-.686h-.689v.315a.315.315,0,0,0,.315.315h.374a.315.315,0,1,0,0-.63Z" transform="translate(-433.913 -287.234)" fill="#d14600"/>
    <path id="Tracé_10718" data-name="Tracé 10718" d="M422.062,284.321h-.893a1.034,1.034,0,0,0,0,2.068h.893a1.034,1.034,0,0,0,0-2.068Zm-.194,1.777h-.385a.67.67,0,0,1-.67-.67v-.517a.67.67,0,0,1,.353-.591v.438h.7a.67.67,0,0,1,0,1.339Z" transform="translate(-418.534 -282.796)" fill="#d14600"/>
    <path id="Tracé_10719" data-name="Tracé 10719" d="M413.455,544v3.083l-1.285-1.542Z" transform="translate(-411.037 -526.461)" fill="#434748"/>
  </g>
</svg>
