<svg xmlns="http://www.w3.org/2000/svg" viewBox="0 0 32 20"><defs><style>.cls-1{fill:#d14600;}.cls-2{fill:#fff;}</style></defs><rect id="Rectangle_5075" data-name="Rectangle 5075" class="cls-1" width="32" height="20" rx="2"/><path id="Tracé_10721" data-name="Tracé 10721" class="cls-2" d="M5.9,3.25v-1h.34v.4h.53a.63.63,0,0,1,.58.29.61.61,0,0,1,0,.64.67.67,0,0,1-.58.29H6.5A.6.6,0,0,1,5.9,3.25Zm.34,0a.27.27,0,0,0,.25.29h.26A.29.29,0,0,0,7,3.22H7a.28.28,0,0,0-.28-.29H6.24Zm1.94.6a.61.61,0,0,1-.58-.93.66.66,0,0,1,.58-.29h.34a.67.67,0,0,1,.58.29.61.61,0,0,1,0,.64.63.63,0,0,1-.58.29Zm.61-.61a.3.3,0,0,0-.29-.29H8.2a.29.29,0,0,0,0,.58h.3a.3.3,0,0,0,.29-.28Zm.56,0V2.6H9.7v.62A.28.28,0,0,0,10,3.5h.48V2.6h.34V3.82H10a.57.57,0,0,1-.62-.53V3.21Zm2.12.61h-.35V2.21h.35Zm3.35-.61v.61h-.35V3.21a.28.28,0,0,0-.29-.28H13.7v.89h-.35V2.61h.85a.61.61,0,0,1,.62.61Zm.2-.06a.57.57,0,0,1,.59-.55h.9V3.8c0,.27-.17.42-.48.42h-.64V3.91h.66a.07.07,0,0,0,.08,0,.09.09,0,0,0,0-.07V3.69h-.52A.55.55,0,0,1,15,3.18v0Zm1.14.23V2.93h-.48c-.16,0-.29.06-.29.22s.13.23.29.23Zm1.94.44h-.76a.59.59,0,0,1-.64-.54V3.22a.6.6,0,0,1,.59-.62h.23a.51.51,0,0,1,.57.47.13.13,0,0,1,0,.06v.2H17.05a.27.27,0,0,0,.29.17h.75Zm-1-.75h.71c0-.1-.08-.17-.25-.17h-.2a.26.26,0,0,0-.26.17Zm2.22-.47v.33H19a.28.28,0,0,0-.29.28v.61h-.34V3.21a.58.58,0,0,1,.55-.61h.41Zm-7,0a.61.61,0,0,0-.61.61.61.61,0,0,0,.61.61h.82V2.61Zm.47.9H12.3A.27.27,0,0,1,12,3.22h0a.29.29,0,0,1,.28-.29h.45ZM3.89,2.75H3.14V3.1a.34.34,0,0,0,.34.34H3.9a.34.34,0,1,0,0-.68Z"/><path id="Tracé_10722" data-name="Tracé 10722" class="cls-2" d="M4.12,1.89h-1a1.15,1.15,0,0,0-1,.55,1.1,1.1,0,0,0,0,1.16,1.15,1.15,0,0,0,1,.54h1a1.13,1.13,0,1,0,0-2.25ZM3.91,3.82H3.48a.73.73,0,0,1-.74-.72V2.53a.71.71,0,0,1,.39-.64v.48h.78a.73.73,0,0,1,.73.72.74.74,0,0,1-.73.74h0Zm26-.66a.84.84,0,0,0-.78-.49.8.8,0,0,0-.77.55h1v.32h-1a.49.49,0,0,0,0,.12.76.76,0,0,0,0,.15h1v.33h-.94a.79.79,0,0,0,.75.53.82.82,0,0,0,.77-.53l.63.33a1.6,1.6,0,0,1-3-.33h-.37V3.81h.32V3.66a.49.49,0,0,1,0-.12h-.33V3.22h.37A1.51,1.51,0,0,1,29.1,2a1.55,1.55,0,0,1,1.41.8Zm-27,14.53a.51.51,0,0,1-.71.07A.51.51,0,0,1,2.1,17a.49.49,0,0,1,.38-.18.48.48,0,0,1,.4.2l-.13.1A.32.32,0,0,0,2.48,17a.38.38,0,0,0-.31.43.38.38,0,0,0,.31.31.35.35,0,0,0,.28-.15ZM4,17.87l-.12,0a.18.18,0,0,1-.19-.16h0a.43.43,0,0,1-.35.17A.3.3,0,0,1,3,17.6c0-.24.2-.28.35-.31s.32,0,.32-.14S3.57,17,3.46,17a.51.51,0,0,0-.31.11L3.07,17a.68.68,0,0,1,.4-.13c.23,0,.39.1.39.33v.47c0,.07,0,.1.08.1H4Zm-.33-.55c-.07.08-.17.08-.29.1s-.21,0-.21.17.09.17.21.17a.27.27,0,0,0,.29-.23v-.21Zm1.05-.26a.27.27,0,0,0-.12,0c-.13,0-.26.11-.26.33v.51H4.19v-1h.17v.17a.37.37,0,0,1,.3-.19.22.22,0,0,1,.13,0Zm.8.77a.34.34,0,0,1-.22.07.29.29,0,0,1-.26-.13.35.35,0,0,1,0-.2V17H4.84v-.12H5V16.6h.17v.28h.33V17H5.18v.55c0,.12.05.17.15.17a.15.15,0,0,0,.13,0Zm1.08-.41H5.84a.32.32,0,0,0,.3.33h0a.43.43,0,0,0,.3-.13l.11.1a.56.56,0,0,1-.42.18.53.53,0,0,1-.51-.53.52.52,0,0,1,.49-.51.46.46,0,0,1,.48.45v.11Zm-.17-.13a.31.31,0,0,0-.61,0Zm1.76.4a.5.5,0,1,1-.41-.83.49.49,0,0,1,.4.21l-.12.1A.32.32,0,0,0,7.81,17a.39.39,0,0,0-.31.43.36.36,0,0,0,.31.31.31.31,0,0,0,.27-.15Zm1.13.19H9.23A.17.17,0,0,1,9,17.74H9a.42.42,0,0,1-.36.16.3.3,0,0,1-.34-.3c0-.23.21-.28.35-.3s.32,0,.32-.15S8.89,17,8.79,17a.58.58,0,0,0-.32.1L8.39,17a.66.66,0,0,1,.4-.13c.23,0,.4.1.4.32v.47c0,.08,0,.1.07.1a.07.07,0,0,0,.06,0ZM9,17.33c-.07.08-.17.08-.29.1s-.21,0-.21.16.09.17.21.17A.25.25,0,0,0,9,17.53a0,0,0,0,0,0,0Zm1.26.55v-.16a.45.45,0,0,1-.36.18.52.52,0,0,1-.46-.58.53.53,0,0,1,.46-.46.44.44,0,0,1,.36.19v-.54h.17v1.37ZM10,17c-.21,0-.31.16-.31.37s.1.37.31.37a.37.37,0,0,0,.33-.4A.36.36,0,0,0,10,17Zm1.7.41h-.79a.32.32,0,0,0,.31.33h0a.43.43,0,0,0,.3-.13l.11.11a.54.54,0,0,1-.41.17.52.52,0,0,1-.51-.53.52.52,0,0,1,.49-.51.48.48,0,0,1,.48.46v0a.13.13,0,0,1,0,.06Zm-.17-.12a.31.31,0,0,0-.62,0Zm1.33.58h-.12a.17.17,0,0,1-.2-.15h0a.41.41,0,0,1-.34.16c-.21,0-.35-.11-.35-.3s.21-.28.35-.3.32,0,.32-.15-.12-.14-.23-.14a.57.57,0,0,0-.31.1L11.85,17a.66.66,0,0,1,.4-.13c.23,0,.39.09.39.32v.47c0,.08,0,.1.08.1a.07.07,0,0,0,.06,0Zm-.33-.56c-.07.09-.17.09-.29.11s-.21,0-.21.16.1.17.21.17a.27.27,0,0,0,.29-.23v-.21Zm1.36-.44v1h-.17v-.16a.44.44,0,0,1-.35.18.33.33,0,0,1-.35-.31v-.71h.17v.61c0,.11,0,.25.22.25a.3.3,0,0,0,.31-.29v-.57Zm15.65,1H22.76l-.1,0a1.23,1.23,0,0,1-.68-.46,1.34,1.34,0,0,1-.23-.5v-3.8a1.23,1.23,0,0,1,.29-.58.27.27,0,0,1,.34-.06.24.24,0,0,1,.06.32h0l-.05.07a.66.66,0,0,0-.17.44V15c0,.1,0,.13.13.13h4.05s.07,0,.1,0L26.37,15a.27.27,0,0,1-.09-.37.05.05,0,0,1,0,0,.28.28,0,0,1,.4,0l0,0,.23.2s0-.09,0-.12v-1.9c0-.17,0-.17-.16-.17H24.27c-.11,0-.22,0-.26-.14a.25.25,0,0,1,.1-.31h5.37a1.23,1.23,0,0,1,.75.44,1.3,1.3,0,0,1,.29.69v3.53a.75.75,0,0,1,0,.16,1.23,1.23,0,0,1-1,1Zm-3-2.21h-4.2c-.1,0-.12,0-.12.12v.9a.81.81,0,0,0,.76.75h3.89c.1,0,.14,0,.13-.14V16.14s0-.06,0-.08a.19.19,0,0,0-.11.09l-.12.09a.28.28,0,0,1-.38-.09.27.27,0,0,1,0-.33l.14-.14Zm1-.9c.13-.09.22-.19.33-.27a.26.26,0,0,1,.3,0,.25.25,0,0,1,.15.23.31.31,0,0,1-.15.27.2.2,0,0,0-.11.11s.06,0,.1,0H29.9c.14,0,.14,0,.14-.14V13.34a.78.78,0,0,0-.78-.77H27.71c-.16,0-.16,0-.16.15v2.07Zm.58.9h0l.08.06a.27.27,0,0,1,.11.38h0a.28.28,0,0,1-.39.09l0,0-.24-.16s0,0-.08,0,0,.06,0,.09v1.22c0,.1,0,.13.13.13h1.62a.81.81,0,0,0,.75-.7c0-.33,0-.65,0-1,0-.09-.05-.1-.12-.1H28.13Z"/><path id="Tracé_10723" data-name="Tracé 10723" class="cls-2" d="M22.65,12.4a.21.21,0,0,1,.2-.23h0a.23.23,0,0,1,0,.45.23.23,0,0,1-.16-.06.2.2,0,0,1-.07-.16Z"/></svg>