<svg xmlns="http://www.w3.org/2000/svg" viewBox="0 0 48 20"><defs><style>.cls-1{fill:#121117;}.cls-2{fill:#e25592;}.cls-3{fill:#9a76ab;}.cls-4{fill:#b0c74d;}.cls-5{fill:#afc74c;}.cls-6{fill:#f5a808;}.cls-7{fill:#f4a807;}</style></defs><path id="Tracé_10705" data-name="Tracé 10705" class="cls-1" d="M37.23,0H10.65A10.6,10.6,0,0,0,4.76,1.67,9.32,9.32,0,0,0,.06,9.43C0,12.74,0,16.05,0,19.37c0,.52.16.63.69.63q9.18,0,18.37,0H36.25c.76,0,1.51,0,2.28-.09,5-.43,9.16-4.47,9.45-9.2C48.34,4.81,43.52,0,37.23,0ZM22.7,13.28a2.74,2.74,0,0,1-2.4,1.27c-1.7,0-2.67-.55-3.1-1.55a2.63,2.63,0,0,1,.69-3.08,3.17,3.17,0,0,1,4.47.12c.22.24.38.52.07.8s-.58.12-.82-.13a2.11,2.11,0,0,0-2.94-.13,1.56,1.56,0,0,0-.51,1.88,1.61,1.61,0,0,0,1.47,1.08,2.06,2.06,0,0,0,2.2-.83.51.51,0,0,1,.67-.22l.09.06c.31.19.27.46.11.73Zm6.92,1.12c-.42.16-.64-.05-.77-.4s-.32-.05-.43,0a3.4,3.4,0,0,1-2.56.47A2.49,2.49,0,0,1,23.78,12a2.82,2.82,0,0,1,2.14-2.76,3.51,3.51,0,0,1,2.35.12.83.83,0,0,0,.46.11c.89-.13.89-.13.89.69v1a9,9,0,0,0,.27,2.42c.06.3.2.67-.27.83Zm6.53,0a.5.5,0,0,1-.68-.21.42.42,0,0,1-.06-.21c0-.25-.2-.15-.35-.06a4.55,4.55,0,0,1-.89.49A2.44,2.44,0,0,1,31,13a2.65,2.65,0,0,1-.16-.73c-.16-2.36,1.5-3.62,4-3,0-1,0-1.91,0-2.86,0-.39.08-.77.11-1.16s.33-.63.79-.61.37.42.35.68A44,44,0,0,0,36,10.71a17.61,17.61,0,0,0,.39,2.89c.06.28.23.64-.21.79Zm4,.18a2.66,2.66,0,0,1-2.82-2.47,2.87,2.87,0,0,1,2.68-3h.36a2.72,2.72,0,0,1,2.81,2.63v.25a2.85,2.85,0,0,1-3,2.64Z"/><path id="Tracé_10706" data-name="Tracé 10706" class="cls-1" d="M35,11.73a1.71,1.71,0,0,1-1.57,1.84h-.1A1.51,1.51,0,0,1,31.87,12V12c.09-1.47.66-1.95,1.81-2C34.57,10,35,10.53,35,11.73Z"/><path id="Tracé_10707" data-name="Tracé 10707" class="cls-1" d="M28.63,11.85a1.9,1.9,0,0,1-1.93,1.87h-.05A1.86,1.86,0,0,1,24.82,12,2.07,2.07,0,0,1,26.9,9.94h0C28.14,9.93,28.62,10.46,28.63,11.85Z"/><path id="Tracé_10708" data-name="Tracé 10708" class="cls-1" d="M38.45,11.78a1.8,1.8,0,0,1,1.7-1.9h.31c1.08,0,1.71.76,1.7,2a1.86,1.86,0,1,1-3.71-.12Z"/><path id="Tracé_10709" data-name="Tracé 10709" class="cls-2" d="M7.58,10.4A31.34,31.34,0,0,1,8,5.19c.08-.49.27-.84.83-.73s.44.58.39.94A38.14,38.14,0,0,0,9.1,14c0,.35.11.66-.33.74a.69.69,0,0,1-.85-.49h0a9.38,9.38,0,0,1-.33-2.35C7.55,11.41,7.58,10.9,7.58,10.4Z"/><path id="Tracé_10710" data-name="Tracé 10710" class="cls-3" d="M10.81,9.63a20.48,20.48,0,0,1,.29-4.21,2.33,2.33,0,0,1,.19-.65c.17-.35.51-.34.83-.27s.27.34.24.6a35.54,35.54,0,0,0-.3,5.26c.06,1.13.16,2.25.24,3.37,0,.44.15.91-.46,1s-.78-.37-.86-.83A24.6,24.6,0,0,1,10.81,9.63Z"/><path id="Tracé_10711" data-name="Tracé 10711" class="cls-4" d="M4.69,11.76c0-.7,0-1.41,0-2.11A.6.6,0,0,1,5.17,9h.08a.53.53,0,0,1,.65.39.5.5,0,0,1,0,.12,21,21,0,0,1,0,4.82c0,.35-.39.35-.65.34a.43.43,0,0,1-.46-.39v-.08C4.8,13.35,4.68,12,4.69,11.76Z"/><path id="Tracé_10712" data-name="Tracé 10712" class="cls-5" d="M5.16,8.09a1,1,0,0,1-1-1V7.06A1.14,1.14,0,0,1,5.15,6a1.08,1.08,0,0,1,1,1.1,1,1,0,0,1-1,1Z"/><path id="Tracé_10713" data-name="Tracé 10713" class="cls-6" d="M15.93,7.1a1,1,0,0,1-1,1,1.09,1.09,0,0,1-1-1.1A1.15,1.15,0,0,1,15,6,1.12,1.12,0,0,1,15.93,7.1Z"/><path id="Tracé_10714" data-name="Tracé 10714" class="cls-7" d="M14.83,9c-.61,0-.66.5-.69,1,0,.72-.1,1.44-.11,2.17s0,1.31.06,2c0,.45.41.58.8.55s.47-.33.44-.65a18,18,0,0,1,.05-3.81C15.4,9.52,15.51,9,14.83,9Z"/></svg>