<?xml version="1.0" encoding="utf-8"?>
<!-- Generator: Adobe Illustrator 25.2.2, SVG Export Plug-In . SVG Version: 6.00 Build 0)  -->
<svg version="1.1" id="Calque_1" xmlns="http://www.w3.org/2000/svg" xmlns:xlink="http://www.w3.org/1999/xlink" x="0px" y="0px"
	 viewBox="0 0 91.8 67.7" style="enable-background:new 0 0 91.8 67.7;" xml:space="preserve">
<style type="text/css">
	.st0{fill:#FFFFFF;}
</style>
<g id="Calque_2_1_">
	<g id="Calque_1-2">
		<path class="st0" d="M73.3,55.7c0-1.9-1.5-3.5-3.5-3.5c-1.9,0-3.5,1.5-3.5,3.5c0,1.9,1.5,3.5,3.5,3.5c0,0,0,0,0,0
			C71.8,59.2,73.3,57.7,73.3,55.7C73.3,55.7,73.3,55.7,73.3,55.7z"/>
		<path class="st0" d="M37.2,55.7c0-1.9-1.5-3.5-3.5-3.5s-3.5,1.5-3.5,3.5s1.5,3.5,3.5,3.5c0,0,0,0,0,0
			C35.7,59.2,37.2,57.7,37.2,55.7C37.2,55.7,37.2,55.7,37.2,55.7z"/>
		<path class="st0" d="M91.7,40c-2-10.7-9-19.8-18.8-24.5c-0.1-0.1-0.3-0.1-0.4-0.1h-0.4h-8.9v-1.2C63.1,6.3,56.8,0,49,0H9.4
			c-1.1,0-2,0.9-2,2v39.2H2.5c-1.1,0-2,0.9-2,2s0.9,2,2,2h6.9c1.1,0,2-0.9,2-2V4H49c5.6,0,10.1,4.5,10.2,10.1v21.4c0,1.1,0.9,2,2,2
			s2-0.9,2-2V19.3h8.5c8.4,4.2,14.3,12,16.1,21.2V51c0,2.2-1.8,3.9-3.9,3.9H79c-0.3,0-0.5,0.1-0.8,0.2c-1,0.1-1.7,1-1.7,2
			c-0.1,3.7-3.3,6.6-7,6.4c-3.5-0.1-6.3-2.9-6.4-6.4c0-1.1-0.8-2-1.9-2.1c-0.1,0-0.1,0-0.2,0c-0.2-0.1-0.5-0.2-0.8-0.2H42.7
			c-0.4,0-0.8,0.1-1.1,0.3c-0.7,0.3-1.2,1-1.2,1.8c0,3.7-3,6.7-6.7,6.7S27,60.7,27,57c0-0.1,0-0.3,0-0.4c0-1.1-0.9-2-2-2H2
			c-1.1,0-2,0.9-2,2s0.9,2,2,2h21.2c0.9,5.8,6.4,9.8,12.2,8.9c4.5-0.7,8.1-4.2,8.9-8.7h15.1c1.1,5.8,6.8,9.6,12.6,8.4
			c4.3-0.8,7.6-4.2,8.4-8.4h3.5c4.4,0,7.9-3.5,8-7.8V40.4C91.8,40.3,91.7,40.1,91.7,40z"/>
	</g>
</g>
</svg>
