<svg id="Groupe_7827" data-name="Groupe 7827" xmlns="http://www.w3.org/2000/svg" xmlns:xlink="http://www.w3.org/1999/xlink" width="16.511" height="16.476" viewBox="0 0 16.511 16.476">
  <defs>
    <radialGradient id="radial-gradient" cx="0.175" cy="0.175" r="0.935" gradientTransform="matrix(0.998, 0, 0, -1, 0, 0.349)" gradientUnits="objectBoundingBox">
      <stop offset="0" stop-color="#9dd5f6"/>
      <stop offset="0.071" stop-color="#98d3f5"/>
      <stop offset="0.157" stop-color="#89cef3"/>
      <stop offset="0.252" stop-color="#70c6ef"/>
      <stop offset="0.351" stop-color="#4ebbea"/>
      <stop offset="0.455" stop-color="#23ade3"/>
      <stop offset="0.5" stop-color="#0da6e0"/>
      <stop offset="1" stop-color="#2e77bc"/>
    </radialGradient>
  </defs>
  <path id="Tracé_5606" data-name="Tracé 5606" d="M16.412,0H0V16.476H16.412V11.039a.629.629,0,0,0,.1-.361.568.568,0,0,0-.1-.361" fill="url(#radial-gradient)"/>
  <path id="Tracé_5607" data-name="Tracé 5607" d="M1.479,98.479l-.314-.769-.314.769m7.586-.3a.408.408,0,0,1-.227.041H7.65v-.431h.571a.52.52,0,0,1,.221.035.18.18,0,0,1,.1.169A.241.241,0,0,1,8.436,98.176Zm4,.3-.32-.769-.32.769Zm-7.452.838H4.512V97.8l-.67,1.514H3.435L2.765,97.8v1.514H1.822l-.175-.431H.687l-.18.431h-.5l.827-1.933H1.52l.78,1.828V97.384h.751l.605,1.31.553-1.31h.769l.006,1.933Zm1.881,0H5.327V97.384H6.87v.4H5.787v.349H6.841v.4H5.787v.384H6.864ZM9.042,97.9a.535.535,0,0,1-.326.512.545.545,0,0,1,.227.163.557.557,0,0,1,.076.355v.378H8.553v-.245a.567.567,0,0,0-.076-.378c-.07-.07-.169-.082-.338-.082H7.644v.7h-.46V97.378h1.06a1.086,1.086,0,0,1,.559.093A.457.457,0,0,1,9.042,97.9Zm.739,1.415H9.309V97.384h.472Zm5.461,0H14.59l-.873-1.45v1.45h-.937l-.18-.431h-.961l-.175.431h-.541a.818.818,0,0,1-.914-.955,1.04,1.04,0,0,1,.25-.757.952.952,0,0,1,.7-.227h.448v.413h-.437a.434.434,0,0,0-.355.116.619.619,0,0,0-.134.437.661.661,0,0,0,.128.454.441.441,0,0,0,.32.1h.21l.652-1.52h.693l.78,1.828V97.378h.7l.809,1.345V97.378h.472v1.939ZM0,99.7H.786l.18-.431h.4l.175.431H3.086V99.37l.14.332h.8l.14-.332V99.7H8.023V99H8.1c.052,0,.07.006.07.093V99.7h1.991v-.163a1.58,1.58,0,0,0,.739.163h.838l.18-.431h.4l.175.431h1.619v-.408l.245.408h1.292V97H14.363v.32l-.18-.32H12.867v.32L12.7,97H10.928a1.578,1.578,0,0,0-.769.157V97H8.931v.157A.781.781,0,0,0,8.407,97H3.936l-.3.7L3.33,97H1.915v.32L1.764,97H.559L0,98.281V99.7Z" transform="translate(0 -91.353)" fill="#fff"/>
  <path id="Tracé_5608" data-name="Tracé 5608" d="M69.246,154.8h-.838a.344.344,0,0,0-.186.035.152.152,0,0,0-.07.14.147.147,0,0,0,.1.146.5.5,0,0,0,.18.023l.25.006a.74.74,0,0,1,.524.157.292.292,0,0,1,.041.047m0,.722a.722.722,0,0,1-.629.245h-.891V155.9h.885a.266.266,0,0,0,.186-.047.162.162,0,0,0,.052-.128.158.158,0,0,0-.058-.128.239.239,0,0,0-.163-.041c-.431-.017-.972.012-.972-.6a.579.579,0,0,1,.664-.576h.92V154h-.856a.985.985,0,0,0-.576.157V154H66.545a.9.9,0,0,0-.553.157V154H63.738v.157a1.218,1.218,0,0,0-.623-.157h-1.49v.157a1.04,1.04,0,0,0-.652-.157H59.308l-.378.413L58.574,154H56.1v2.7h2.439l.39-.419.373.419h1.5v-.635h.146a1.545,1.545,0,0,0,.64-.093v.728h1.24v-.7h.058c.076,0,.082.006.082.081v.623h3.778a1.086,1.086,0,0,0,.629-.175v.175h1.193a1.627,1.627,0,0,0,.675-.122v-.5Zm-1.84-.774a.545.545,0,0,1,.14.408c0,.413-.262.611-.722.611h-.9V155.9h.9a.266.266,0,0,0,.186-.047.185.185,0,0,0,.052-.128A.158.158,0,0,0,67,155.6a.239.239,0,0,0-.163-.041c-.431-.017-.972.012-.972-.6a.574.574,0,0,1,.658-.576h.926v.413h-.844a.344.344,0,0,0-.186.035.142.142,0,0,0-.07.14.147.147,0,0,0,.1.146.5.5,0,0,0,.18.023l.25.006A.741.741,0,0,1,67.406,155.3Zm-4.163-.116a.467.467,0,0,1-.227.041h-.559v-.431h.571a.444.444,0,0,1,.221.035.185.185,0,0,1,.093.175A.2.2,0,0,1,63.244,155.182Zm.279.239a.509.509,0,0,1,.227.163.557.557,0,0,1,.076.355v.384H63.36v-.239a.567.567,0,0,0-.076-.378.445.445,0,0,0-.338-.087h-.495v.7h-.466V154.39h1.065a1.126,1.126,0,0,1,.553.093.455.455,0,0,1,.239.431A.52.52,0,0,1,63.523,155.421Zm.582-1.03h1.537v.4H64.559v.349h1.054v.4H64.559v.384h1.083v.4H64.105ZM61,155.281H60.4v-.489H61c.169,0,.279.07.279.239S61.171,155.281,61,155.281Zm-1.06.862-.71-.786.71-.763Zm-1.828-.227H56.973v-.384h1.013v-.4H56.973v-.349h1.159l.507.565Zm3.668-.891c0,.536-.4.646-.8.646H60.4v.646h-.9l-.571-.64-.588.64H56.513v-1.933h1.857l.571.635.588-.635H61C61.363,154.39,61.776,154.489,61.776,155.025Z" transform="translate(-52.834 -145.034)" fill="#fff"/>
</svg>
