<svg xmlns="http://www.w3.org/2000/svg" width="22.351" height="26.371" viewBox="0 0 22.351 26.371"><defs><style>.a{fill:#179bd7;}.b{fill:#253b80;}.c{fill:#222d65;}</style></defs><g transform="translate(-18.998 -102.942)"><path class="a" d="M53.008,126.275a4.069,4.069,0,0,0-1.168-.9h0c-.024.156-.052.316-.084.481s-.062.3-.1.45c-1.044,4.564-3.961,6.521-7.762,6.932q-.38.041-.771.062-.43.023-.873.023h-2.4a1.168,1.168,0,0,0-1.155.99l-1.09,6.915-.141.893-.348,2.214a.616.616,0,0,0,.607.712h4.265A1.027,1.027,0,0,0,43,144.181l.042-.217.8-5.1.052-.28a1.025,1.025,0,0,1,1.014-.866h.638c4.133,0,7.368-1.677,8.313-6.533C54.257,129.16,54.053,127.466,53.008,126.275Z" transform="translate(-12.701 -15.733)"/><path class="b" d="M25.994,118.58l.039-.253L27.4,109.67a1.024,1.024,0,0,1,1.012-.866h6.425a13.35,13.35,0,0,1,2.12.155q.278.044.541.1t.51.131l.185.057.057.018.032.012a5.782,5.782,0,0,1,.853.362h0a5.241,5.241,0,0,0-1.112-4.712c-1.222-1.392-3.429-1.988-6.253-1.988h-8.2a1.171,1.171,0,0,0-1.158.99l-3.415,21.642a.7.7,0,0,0,.7.814h5.06l.141-.893Z" transform="translate(0)"/><path class="c" d="M55.565,123.406a5.731,5.731,0,0,0-.853-.362l-.032-.012-.057-.018-.185-.057q-.248-.072-.51-.131t-.541-.1a13.349,13.349,0,0,0-2.12-.155H44.841a1.024,1.024,0,0,0-1.012.866l-1.367,8.657-.039.253a1.169,1.169,0,0,1,1.155-.99h2.4q.443,0,.873-.023c.261-.014.518-.034.771-.062,3.8-.411,6.717-2.369,7.762-6.932.034-.148.067-.3.1-.45s.059-.324.084-.481Z" transform="translate(-16.428 -13.765)"/></g></svg>