<svg id="Logo_Visa" xmlns="http://www.w3.org/2000/svg" width="28.35" height="8.809" viewBox="0 0 28.35 8.809">
  <path id="polygon9" d="M435.714,119.254h-2.207l1.381-8.527H437.1Z" transform="translate(-423.921 -110.572)" fill="#00579f"/>
  <path id="path11" d="M571.8,105.411a5.446,5.446,0,0,0-1.98-.363c-2.18,0-3.715,1.161-3.724,2.821-.018,1.225,1.1,1.905,1.935,2.313.854.417,1.144.69,1.144,1.062-.009.571-.69.835-1.326.835a4.4,4.4,0,0,1-2.071-.454l-.291-.136-.309,1.914a6.726,6.726,0,0,0,2.462.454c2.316,0,3.824-1.143,3.842-2.912.009-.971-.581-1.715-1.853-2.322-.772-.39-1.245-.653-1.245-1.052.009-.363.4-.735,1.271-.735a3.755,3.755,0,0,1,1.644.327l.2.091.3-1.841Z" transform="translate(-552.012 -105.048)" fill="#00579f"/>
  <path id="path13" d="M793.937,116.233c.182-.49.881-2.386.881-2.386-.009.018.181-.5.29-.816l.154.735s.418,2.041.509,2.467Zm2.725-5.506h-1.707a1.089,1.089,0,0,0-1.154.707l-3.279,7.819h2.316l.463-1.279h2.834c.063.3.263,1.279.263,1.279h2.044l-1.781-8.527Z" transform="translate(-771.23 -110.572)" fill="#00579f"/>
  <path id="path15" d="M171.286,110.727l-2.162,5.815-.236-1.179a6.529,6.529,0,0,0-3.052-3.574l1.98,7.457h2.334l3.47-8.518Z" transform="translate(-163.528 -110.572)" fill="#00579f"/>
  <path id="path17" d="M84.754,110.727H81.2l-.036.172a7.386,7.386,0,0,1,5.359,4.469l-.772-3.924a.913.913,0,0,0-1-.718Z" transform="translate(-81.166 -110.572)" fill="#faa61a"/>
  <g id="Ellipse_682" data-name="Ellipse 682" transform="translate(27.358 7.662)" fill="#fff" stroke="#00579f" stroke-width="1">
    <ellipse cx="0.496" cy="0.496" rx="0.496" ry="0.496" stroke="none"/>
    <ellipse cx="0.496" cy="0.496" rx="0.004" ry="0.004" fill="none"/>
  </g>
  <path id="Tracé_10702" data-name="Tracé 10702" d="M-2.825-6.714v-.444h.2a.262.262,0,0,1,.09.012.1.1,0,0,1,.049.042.126.126,0,0,1,.018.067.112.112,0,0,1-.031.08.155.155,0,0,1-.095.041.152.152,0,0,1,.035.022.305.305,0,0,1,.049.059l.077.121h-.074l-.059-.092q-.026-.04-.042-.061a.133.133,0,0,0-.03-.03.088.088,0,0,0-.027-.012l-.033,0h-.068v.2Zm.059-.248h.126a.189.189,0,0,0,.063-.008A.067.067,0,0,0-2.542-7a.072.072,0,0,0,.012-.04.066.066,0,0,0-.023-.052.107.107,0,0,0-.072-.02h-.141Z" transform="translate(30.492 15.068)" fill="#00579f"/>
</svg>
