<svg id="Logo_CB" xmlns="http://www.w3.org/2000/svg" width="25.973" height="10.685" viewBox="0 0 25.973 10.685">
  <path id="Tracé_1838" data-name="Tracé 1838" d="M138.643,2.595A2.6,2.6,0,0,0,136.048,0H126.6V5.2h9.448A2.615,2.615,0,0,0,138.643,2.595Z" transform="translate(-112.671)" fill="#01acba"/>
  <path id="Tracé_1839" data-name="Tracé 1839" d="M138.643,52.295a2.6,2.6,0,0,0-2.595-2.595H126.6v5.2h9.448A2.615,2.615,0,0,0,138.643,52.295Z" transform="translate(-112.671 -44.249)" fill="#01acba"/>
  <path id="Tracé_1840" data-name="Tracé 1840" d="M6.92,5.836V5.526h6.942V5.1A4.714,4.714,0,0,0,9.138.4H4.724a4.725,4.725,0,0,0-3.34,1.368A4.672,4.672,0,0,0,0,5.086V6.343a4.714,4.714,0,0,0,4.724,4.7H9.138a4.714,4.714,0,0,0,4.724-4.7V5.836Z" transform="translate(0 -0.356)" fill="#01acba"/>
</svg>
