<svg id="Logo_Oney" xmlns="http://www.w3.org/2000/svg" width="49.856" height="16" viewBox="0 0 49.856 16">
  <path id="Tracé_10720" data-name="Tracé 10720" d="M6.208,10.3a4.03,4.03,0,0,1-4.032-4.1,4.032,4.032,0,1,1,8.064,0,4.07,4.07,0,0,1-4.032,4.1m0-10.3A6.173,6.173,0,0,0,0,6.208a6.133,6.133,0,0,0,6.208,6.208,6.133,6.133,0,0,0,6.208-6.208A6.173,6.173,0,0,0,6.208,0M38.144,6.08a6.018,6.018,0,1,0-12.032.128A6.145,6.145,0,0,0,27.84,10.56a5.727,5.727,0,0,0,4.224,1.856A6.265,6.265,0,0,0,37.7,9.024l.064-.064h-2.5A4.224,4.224,0,0,1,32.192,10.3a3.925,3.925,0,0,1-3.84-3.2H38.08l.064-1.024m-9.728-.96a3.865,3.865,0,0,1,3.712-3.008A3.791,3.791,0,0,1,35.776,5.12ZM19.264,2.048c-2.176,0-3.328,1.152-3.328,3.52v6.848H13.7V5.376a4.941,4.941,0,0,1,.768-2.88,5.323,5.323,0,0,1,4.8-2.5,5.323,5.323,0,0,1,4.8,2.5,5.471,5.471,0,0,1,.768,2.88v7.04h-2.3V5.568c0-2.368-1.088-3.52-3.264-3.52M49.856,0,45.12,11.584,43.9,14.4l-.64,1.6h-2.3l1.792-4.416L37.888,0h2.5L43.9,8.7,47.488,0Z" fill="#8bbd06"/>
</svg>
