<svg id="Logo_Mastercard" data-name="Logo Mastercard" xmlns="http://www.w3.org/2000/svg" width="23.096" height="18" viewBox="0 0 23.096 18">
  <path id="Tracé_10699" data-name="Tracé 10699" d="M24.2,94.521V93.33a.706.706,0,0,0-.745-.755.733.733,0,0,0-.666.338.7.7,0,0,0-.626-.338.626.626,0,0,0-.555.282v-.234H21.19v1.9h.416V93.477a.445.445,0,0,1,.464-.5c.274,0,.412.179.412.5v1.057H22.9V93.477a.447.447,0,0,1,.464-.5c.281,0,.416.179.416.5v1.057Zm6.159-1.9h-.678v-.576H29.26v.576h-.377V93h.385v.874c0,.441.17.7.658.7a.966.966,0,0,0,.515-.147l-.119-.353a.76.76,0,0,1-.365.107c-.2,0-.274-.127-.274-.318V93h.674Zm3.517-.048a.559.559,0,0,0-.5.278v-.23h-.408v1.9h.412V93.457c0-.314.135-.489.4-.489a.671.671,0,0,1,.258.048l.127-.4a.881.881,0,0,0-.293-.052Zm-5.317.2a1.416,1.416,0,0,0-.773-.2c-.48,0-.793.23-.793.608,0,.31.23.5.654.56l.2.028c.226.032.333.091.333.2,0,.147-.151.23-.432.23a1.008,1.008,0,0,1-.63-.2l-.2.322a1.366,1.366,0,0,0,.821.246c.547,0,.864-.258.864-.62s-.25-.508-.662-.568l-.2-.028c-.178-.024-.321-.06-.321-.187s.135-.222.361-.222a1.219,1.219,0,0,1,.595.163Zm11.044-.2a.559.559,0,0,0-.5.278v-.23H38.69v1.9H39.1V93.457c0-.314.135-.489.4-.489a.671.671,0,0,1,.258.048l.127-.4a.881.881,0,0,0-.293-.052Zm-5.313.993a.958.958,0,0,0,1.011.993.99.99,0,0,0,.682-.226L35.78,94a.832.832,0,0,1-.5.171.61.61,0,0,1,0-1.215.832.832,0,0,1,.5.171l.2-.334a.99.99,0,0,0-.682-.226.958.958,0,0,0-1.011.993Zm3.862,0v-.945h-.412v.23a.719.719,0,0,0-.595-.278.993.993,0,0,0,0,1.986.719.719,0,0,0,.595-.278v.23h.412Zm-1.534,0a.57.57,0,1,1,.155.43.573.573,0,0,1-.155-.43Zm-4.976-.993a.993.993,0,0,0,.028,1.986,1.15,1.15,0,0,0,.787-.258l-.2-.306a.9.9,0,0,1-.551.2.526.526,0,0,1-.567-.465h1.407v-.159a.9.9,0,0,0-.9-.993Zm0,.369a.47.47,0,0,1,.48.461h-.991a.488.488,0,0,1,.5-.461Zm10.33.628V91.86h-.4v.993a.719.719,0,0,0-.595-.278.993.993,0,0,0,0,1.986.719.719,0,0,0,.595-.278v.23h.4Zm.688.673a.191.191,0,0,1,.178.113.185.185,0,0,1,0,.147.19.19,0,0,1-.1.1.186.186,0,0,1-.075.016.2.2,0,0,1-.178-.115.187.187,0,0,1,0-.147.192.192,0,0,1,.184-.113Zm0,.336a.141.141,0,0,0,.057-.012.143.143,0,0,0,.046-.23.147.147,0,0,0-.046-.032.143.143,0,0,0-.057-.012.149.149,0,0,0-.057.012.144.144,0,0,0-.048.032.144.144,0,0,0,.111.242Zm.012-.236a.079.079,0,0,1,.052.016.05.05,0,0,1,.018.042.048.048,0,0,1-.014.036.069.069,0,0,1-.042.018l.057.066h-.046l-.054-.066h-.018v.066h-.038v-.175Zm-.044.034v.048h.044a.042.042,0,0,0,.024,0,41.856,41.856,0,0,1,0-.036.042.042,0,0,0-.024,0Zm-2.181-.806A.57.57,0,1,1,40.6,94,.573.573,0,0,1,40.443,93.572Zm-13.922,0v-.949h-.412v.23a.719.719,0,0,0-.595-.278.993.993,0,0,0,0,1.986.719.719,0,0,0,.595-.278v.23h.412Zm-1.534,0a.563.563,0,1,1,.152.431.573.573,0,0,1-.152-.431Z" transform="translate(-19.992 -76.62)" fill="#231f20"/>
  <rect id="Rectangle_1698" data-name="Rectangle 1698" width="6.256" height="11.242" transform="translate(8.42 1.529)" fill="#ff5f00"/>
  <path id="_Path_" data-name="&lt;Path&gt;" d="M23.992,22.3a7.137,7.137,0,0,1,2.731-5.622,7.149,7.149,0,1,0,0,11.242,7.137,7.137,0,0,1-2.731-5.62Z" transform="translate(-15.155 -15.154)" fill="#eb001b"/>
  <path id="Tracé_10700" data-name="Tracé 10700" d="M84.968,22.3A7.149,7.149,0,0,1,73.4,27.922a7.149,7.149,0,0,0,0-11.242A7.149,7.149,0,0,1,84.968,22.3Z" transform="translate(-61.872 -15.151)" fill="#f79e1b"/>
  <path id="Tracé_10701" data-name="Tracé 10701" d="M127.633,72.338v-.23h.093V72.06h-.236v.048h.1v.23Zm.459,0V72.06h-.072l-.083.2-.083-.2h-.064v.278h.052V72.13l.077.181h.054l.077-.181v.21Z" transform="translate(-105.22 -60.755)" fill="#f79e1b"/>
</svg>
