<svg xmlns="http://www.w3.org/2000/svg" width="70" height="15" viewBox="0 0 70 15">
  <g id="oney_par_carte" transform="translate(0 0.1)">
    <path id="Tracé_10724" data-name="Tracé 10724" d="M98.259-.073A5.759,5.759,0,0,0,92.6,5.736a5.637,5.637,0,1,0,11.267.055V5.764a5.687,5.687,0,0,0-5.5-5.836h-.105m0,9.682a3.77,3.77,0,0,1-3.791-3.764,3.715,3.715,0,1,1,7.423-.164v.082a3.724,3.724,0,0,1-3.606,3.845h-.026M137.692-.073,133.4,10.755l-1.053,2.673-.579,1.473h-2.106l1.632-4.173-4.37-10.8h2.238l3.212,8.155,3.212-8.155ZM110.079,1.864c-1.974,0-2.975,1.091-2.975,3.273v6.436h-2.027v-6.6a5.244,5.244,0,0,1,.684-2.755,5.228,5.228,0,0,1,8.687,0,4.963,4.963,0,0,1,.658,2.755v6.6h-2.027V5.136q-.039-3.273-3-3.273M118.371,4.7A3.381,3.381,0,0,1,122.4,2,3.417,3.417,0,0,1,125,4.7Zm8.766.9a5.457,5.457,0,1,0-10.9.136,6.008,6.008,0,0,0,1.579,4.091,5.162,5.162,0,0,0,3.843,1.745,5.616,5.616,0,0,0,5.081-3.164c0-.027.026-.055.026-.082h-2.211l-.026.027a3.74,3.74,0,0,1-2.79,1.227,3.614,3.614,0,0,1-3.448-3.027h8.792c.026-.218.053-.655.053-.955" transform="translate(-67.692 0)" fill="#86bd28"/>
    <path id="Tracé_10725" data-name="Tracé 10725" d="M51.685,0a5.66,5.66,0,1,0,5.633,5.686V5.659A5.607,5.607,0,0,0,51.791,0h-.105" transform="translate(-33.78 -0.073)" fill="#86bd28"/>
    <path id="Tracé_10726" data-name="Tracé 10726" d="M57.364,15.285H55.6V12.1h1.027v2.343h.737V13.232H58.39v1.211h.526v.842H58.39V16.5H57.364Z" transform="translate(-40.846 -8.822)" fill="#fff"/>
    <path id="Tracé_10727" data-name="Tracé 10727" d="M72.112,20.327H71.006l-.5-.869-.5.869H68.9L69.927,18.8l-1-1.5h1.106l.474.869.474-.869h1.106l-1,1.5Z" transform="translate(-50.617 -12.611)" fill="#fff"/>
    <path id="Tracé_10728" data-name="Tracé 10728" d="M5.66,0a5.66,5.66,0,0,0,0,11.319,5.584,5.584,0,0,0,5.633-5.528V5.686A5.629,5.629,0,0,0,5.765,0H5.66" transform="translate(0 -0.074)" fill="#86bd28"/>
    <path id="Tracé_10729" data-name="Tracé 10729" d="M9.853,14.727c0,.474.263.763.658.763a.526.526,0,0,0,.579-.526v-.053c0-.369-.158-.605-.658-.605h-.395v-.79h.395c.448,0,.579-.211.579-.553a.466.466,0,0,0-.421-.5h-.105c-.421,0-.553.263-.553.632h-1a1.373,1.373,0,0,1,1.553-1.4c.816,0,1.527.421,1.527,1.237a.986.986,0,0,1-.658.974,1.051,1.051,0,0,1,.711,1.053,1.409,1.409,0,0,1-1.579,1.316A1.51,1.51,0,0,1,8.8,14.7Z" transform="translate(-6.483 -8.53)" fill="#fff"/>
    <path id="Tracé_10730" data-name="Tracé 10730" d="M25.712,20.327H24.606l-.5-.869-.5.869H22.5L23.553,18.8l-1.027-1.5h1.106l.474.869.474-.869h1.132l-1.027,1.5Z" transform="translate(-16.577 -12.611)" fill="#fff"/>
  </g>
</svg>
