<svg id="XMLID_7_" xmlns="http://www.w3.org/2000/svg" xmlns:xlink="http://www.w3.org/1999/xlink" viewBox="0 0 103.239 27.469">
  <defs>
    <style>
      .cls-1 {
        clip-path: url(#clip-path);
      }

      .cls-2 {
        fill: #253b80;
      }

      .cls-3 {
        fill: #179bd7;
      }

      .cls-4 {
        fill: #222d65;
      }

      .cls-5 {
        clip-path: url(#clip-path-4);
      }
    </style>
    <clipPath id="clip-path">
      <rect id="Rectangle_1179" data-name="Rectangle 1179" width="103.23" height="27.469"/>
    </clipPath>
    <clipPath id="clip-path-4">
      <path id="Tracé_4324" data-name="Tracé 4324" d="M103.23,0V27.469H0V0"/>
    </clipPath>
  </defs>
  <g id="XMLID_22_" transform="translate(0 0)">
    <g id="XMLID_23_" transform="translate(0 0)">
      <g id="XMLID_39_">
        <g id="XMLID_40_">
          <path id="XMLID_65_" class="cls-2" d="M136.724,29.44c-.3,2.052-1.865,2.052-3.381,2.052h-.863l.606-3.824a.474.474,0,0,1,.466-.4h.4c1.026,0,2.005,0,2.495.583A1.866,1.866,0,0,1,136.724,29.44Zm-.653-5.34h-5.69a.8.8,0,0,0-.793.676l-2.309,14.6a.472.472,0,0,0,.466.536h2.728a.8.8,0,0,0,.793-.676l.63-3.941a.8.8,0,0,1,.769-.676h1.8c3.754,0,5.923-1.819,6.483-5.41a4.475,4.475,0,0,0-.723-3.684A5.465,5.465,0,0,0,136.071,24.1Z" transform="translate(-97.587 -18.48)"/>
          <path id="XMLID_62_" class="cls-2" d="M191.84,51.15a3.033,3.033,0,0,1-3.078,2.612,2.321,2.321,0,0,1-1.842-.746,2.29,2.29,0,0,1-.42-1.912,3.066,3.066,0,0,1,3.055-2.635,2.3,2.3,0,0,1,1.819.746A2.4,2.4,0,0,1,191.84,51.15Zm3.8-5.293h-2.728a.457.457,0,0,0-.466.4l-.117.77-.187-.28c-.583-.863-1.912-1.143-3.218-1.143a6.266,6.266,0,0,0-6.086,5.48,5.19,5.19,0,0,0,1.026,4.2,4.276,4.276,0,0,0,3.428,1.376,5.236,5.236,0,0,0,3.778-1.562l-.117.746a.492.492,0,0,0,.466.56h2.448a.8.8,0,0,0,.793-.676l1.469-9.327A.5.5,0,0,0,195.641,45.857Z" transform="translate(-140.134 -34.967)"/>
          <path id="XMLID_61_" class="cls-2" d="M258.462,46.7h-2.728a.807.807,0,0,0-.653.35L251.3,52.6l-1.609-5.34a.805.805,0,0,0-.77-.56h-2.682a.469.469,0,0,0-.443.63l3.008,8.861L245.963,60.2a.469.469,0,0,0,.4.746h2.728a.751.751,0,0,0,.653-.35l9.117-13.151A.475.475,0,0,0,258.462,46.7Z" transform="translate(-188.451 -35.81)"/>
          <path id="XMLID_58_" class="cls-3" d="M310.9,29.44c-.3,2.052-1.866,2.052-3.381,2.052h-.863l.606-3.824a.474.474,0,0,1,.466-.4h.4c1.026,0,2.005,0,2.495.583A1.866,1.866,0,0,1,310.9,29.44Zm-.653-5.34h-5.69a.761.761,0,0,0-.77.676l-2.309,14.6a.472.472,0,0,0,.466.536h2.915a.515.515,0,0,0,.536-.466l.653-4.127a.8.8,0,0,1,.769-.676h1.8c3.754,0,5.923-1.819,6.483-5.41a4.476,4.476,0,0,0-.723-3.684C313.606,24.613,312.16,24.1,310.248,24.1Z" transform="translate(-231.166 -18.48)"/>
          <path id="XMLID_53_" class="cls-3" d="M365.94,51.15a3.033,3.033,0,0,1-3.078,2.612,2.321,2.321,0,0,1-1.842-.746,2.29,2.29,0,0,1-.42-1.912,3.063,3.063,0,0,1,3.055-2.612,2.167,2.167,0,0,1,2.285,2.658Zm3.8-5.293h-2.728a.457.457,0,0,0-.466.4l-.117.77-.187-.28c-.583-.863-1.912-1.143-3.218-1.143a6.266,6.266,0,0,0-6.086,5.48,5.19,5.19,0,0,0,1.026,4.2,4.276,4.276,0,0,0,3.428,1.376,5.235,5.235,0,0,0,3.777-1.562l-.117.746a.492.492,0,0,0,.466.56h2.448a.761.761,0,0,0,.77-.676l1.469-9.327A.46.46,0,0,0,369.741,45.857Z" transform="translate(-273.637 -34.967)"/>
          <path id="XMLID_45_" class="cls-3" d="M418.212,24.42,415.88,39.3a.472.472,0,0,0,.466.536H418.7a.8.8,0,0,0,.793-.676l2.308-14.6a.492.492,0,0,0-.466-.56H418.7A.5.5,0,0,0,418.212,24.42Z" transform="translate(-318.89 -18.404)"/>
          <path id="XMLID_44_" class="cls-2" d="M8.953,27.035,9.4,24.26l-.979-.023H3.8l3.218-20.4a.236.236,0,0,1,.093-.163.252.252,0,0,1,.163-.07h7.812c2.588.023,4.384.56,5.317,1.609a3.676,3.676,0,0,1,.863,1.586,5.733,5.733,0,0,1,0,2.192v.63l.443.257a2.968,2.968,0,0,1,.886.676,3.3,3.3,0,0,1,.723,1.609,6.726,6.726,0,0,1-.093,2.332,8.507,8.507,0,0,1-.956,2.658A5.18,5.18,0,0,1,20.752,18.8a6.139,6.139,0,0,1-2.052.933,10.6,10.6,0,0,1-2.565.3h-.63a1.829,1.829,0,0,0-1.189.443,1.878,1.878,0,0,0-.63,1.1l-.047.257-.769,4.873-.023.187c0,.047-.023.093-.047.093a.086.086,0,0,1-.07.023H8.953Z" transform="translate(-2.904 -2.761)"/>
          <path id="XMLID_43_" class="cls-3" d="M36.2,27.4c-.023.14-.047.3-.07.466-1.049,5.27-4.57,7.089-9.071,7.089H24.77a1.1,1.1,0,0,0-1.1.933l-1.166,7.438-.326,2.1a.589.589,0,0,0,.583.676H26.8a.957.957,0,0,0,.956-.816l.047-.21.77-4.85.047-.256a.975.975,0,0,1,.956-.816h.606c3.941,0,7.019-1.609,7.928-6.226.373-1.935.187-3.544-.816-4.687A3.693,3.693,0,0,0,36.2,27.4Z" transform="translate(-16.996 -21.011)"/>
          <path id="XMLID_42_" class="cls-4" d="M40.049,24.35a3.729,3.729,0,0,0-.49-.117,3.952,3.952,0,0,0-.513-.093A13.633,13.633,0,0,0,37.018,24H30.909a.854.854,0,0,0-.42.093.961.961,0,0,0-.536.723l-1.306,8.255L28.6,33.3a1.123,1.123,0,0,1,1.1-.933h2.285c4.5,0,8.021-1.819,9.047-7.112.023-.163.047-.3.07-.466a4.529,4.529,0,0,0-.839-.35A.828.828,0,0,0,40.049,24.35Z" transform="translate(-21.922 -18.404)"/>
          <path id="XMLID_41_" class="cls-2" d="M7.967,6.412A.961.961,0,0,1,8.5,5.69a.915.915,0,0,1,.42-.093h6.109a13.862,13.862,0,0,1,2.029.14c.187.023.35.07.513.093.163.047.326.07.49.117.07.023.163.047.233.07a4.53,4.53,0,0,1,.839.35,4.981,4.981,0,0,0-1.049-4.477C16.921.56,14.822,0,12.141,0H4.329a1.087,1.087,0,0,0-1.1.933L-.031,21.569a.669.669,0,0,0,.653.769H5.449l1.213-7.672Z" transform="translate(0.041 0)"/>
        </g>
      </g>
    </g>
  </g>
</svg>
