<svg xmlns="http://www.w3.org/2000/svg" viewBox="0 0 32 20"><defs><style>.cls-1{fill:#82cb9e;}.cls-2{fill:#fff;}.cls-3{fill:#d14600;}</style></defs><rect id="Rectangle_5075" data-name="Rectangle 5075" class="cls-1" width="32" height="20" rx="2"/><path id="Tracé_10731" data-name="Tracé 10731" class="cls-2" d="M30,2.41a1.55,1.55,0,0,0-1.4-.81,1.52,1.52,0,0,0-1.55,1.23h-.36v.32H27s0,.09,0,.13,0,.1,0,.15h-.32v.33h.37A1.5,1.5,0,0,0,28.62,5,1.53,1.53,0,0,0,30,4.1l-.63-.34a.82.82,0,0,1-.76.54.77.77,0,0,1-.75-.54h.94V3.43h-1a.76.76,0,0,1,0-.15.57.57,0,0,1,0-.13h1V2.83h-1a.8.8,0,0,1,.77-.55.83.83,0,0,1,.77.49Z"/><path id="Tracé_6310" data-name="Tracé 6310" class="cls-2" d="M3.76,2.4h-1a1.14,1.14,0,1,0-.07,2.28H3.76A1.14,1.14,0,0,0,3.82,2.4H3.76m-.22,2H3.11a.75.75,0,0,1-.75-.74V3.05h0a.73.73,0,0,1,.4-.65v.48h.78a.74.74,0,0,1,0,1.48"/><path id="Tracé_6311" data-name="Tracé 6311" class="cls-2" d="M3.53,3.27H2.76v.36A.35.35,0,0,0,3.11,4h.42a.36.36,0,0,0,.39-.32.35.35,0,0,0-.32-.38H3.53"/><path id="Tracé_6309" data-name="Tracé 6309" class="cls-2" d="M17.14,7.11h-3.7V4.8a3.53,3.53,0,0,0-1.86,3.11h0v2.73a3.53,3.53,0,0,0,3.53,3.53h2a3.53,3.53,0,0,0,0-7.06"/><path id="Tracé_6310-2" data-name="Tracé 6310-2" class="cls-3" d="M18.17,4.8H13.45a5.39,5.39,0,0,0-.15,10.77h4.87A5.39,5.39,0,1,0,18.31,4.8h-.14m-1,9.26h-2a3.51,3.51,0,0,1-3.53-3.49h0V7.87h0a3.5,3.5,0,0,1,1.87-3.08V7.08h3.7a3.49,3.49,0,0,1,0,7"/><path id="Tracé_6311-2" data-name="Tracé 6311-2" class="cls-3" d="M17.09,8.92H13.46v1.66a1.66,1.66,0,0,0,1.66,1.66h2a1.67,1.67,0,0,0,0-3.33"/></svg>