<svg xmlns="http://www.w3.org/2000/svg" width="59.83" height="48.59"><path d="M43.44 26.93c0 2.31-1.31 3.4-3.32 3.4a4.6 4.6 0 0 1-.83-.08 1.04 1.04 0 0 1-.79-1.38l.04-.1a1.01 1.01 0 0 1 1.06-.63 2 2 0 0 0 .18.01c.7 0 1-.4 1-1.17v-3.73a1.33 1.33 0 1 1 2.66 0zM43.45 19.3a1.33 1.33 0 1 0-1.33 1.32 1.33 1.33 0 0 0 1.33-1.33M34 22.95a3.97 3.97 0 0 0-1.26-.84 3.9 3.9 0 0 0-3.09.02l.27-1.54h3.38a1.67 1.67 0 0 0 1.1-.33 1.18 1.18 0 0 0 .43-.93c0-.48-.2-1.28-1.58-1.28h-4.1a1.64 1.64 0 0 0-1.22.4 2.1 2.1 0 0 0-.5 1.17l-.65 3.72a4.37 4.37 0 0 0-.09.59 1.2 1.2 0 0 0 .41.89c.5.47 1.13.57 2.03-.11a8.11 8.11 0 0 1 .79-.54 1.68 1.68 0 0 1 .77-.12 1.54 1.54 0 0 1 .8.21 1.47 1.47 0 0 1 .57.64 2.48 2.48 0 0 1 .23 1.11 2.64 2.64 0 0 1-.2 1.09 1.65 1.65 0 0 1-.58.7 1.6 1.6 0 0 1-1.8-.07 2.27 2.27 0 0 1-.73-.92 1.38 1.38 0 0 0-1.3-.98 1.26 1.26 0 0 0-1.24 1.21 2.83 2.83 0 0 0 .4 1.34 3.56 3.56 0 0 0 1.36 1.31 5.3 5.3 0 0 0 4.8-.03 4.1 4.1 0 0 0 1.6-1.6 4.58 4.58 0 0 0 .55-2.23 4.13 4.13 0 0 0-.3-1.59 3.96 3.96 0 0 0-.86-1.28zM24.76 27.8h-1.82v-8.28a1.75 1.75 0 0 0-.33-1.1 1.16 1.16 0 0 0-.94-.46 1 1 0 0 0-.76.26 8.6 8.6 0 0 0-.6.78 6.02 6.02 0 0 1-.95 1.03 6.26 6.26 0 0 1-1.41.88 5.69 5.69 0 0 0-.94.52 1.03 1.03 0 0 0-.4.87 1.19 1.19 0 0 0 .36.85 1.15 1.15 0 0 0 .83.37c.31 0 .88-.13 2.3-1.15v5.43h-1.86a1.26 1.26 0 0 0 0 2.53h6.52a1.26 1.26 0 1 0 0-2.53z" fill="#fff"/><g><path d="M29.8 48.59A24.4 24.4 0 0 1 6.74 32l-4.36 3.23a1.49 1.49 0 0 1-1.78-2.4l6.09-4.5a1.49 1.49 0 0 1 2.33.86 21.36 21.36 0 0 0 42.01-2.54 1.49 1.49 0 1 1 2.96.33A24.36 24.36 0 0 1 29.8 48.6zM52.26 20.54a1.49 1.49 0 0 1-1.45-1.14A21.36 21.36 0 0 0 25.08 3.57 21.43 21.43 0 0 0 9.54 18.29a1.49 1.49 0 0 1-2.85-.85A24.42 24.42 0 0 1 24.39.67a24.34 24.34 0 0 1 28.7 15.91l4.36-3.23a1.49 1.49 0 0 1 1.78 2.4l-6.1 4.5a1.49 1.49 0 0 1-.87.3z" fill="#fff"/><circle cx="1.48" cy="1.48" r="1.48" fill="#fff" transform="translate(5.65 22.22)"/></g></svg>