<svg xmlns="http://www.w3.org/2000/svg" width="84.79" height="24.335"><path d="M84.79 21.914a2.421 2.421 0 0 1-2.421 2.421H2.421A2.421 2.421 0 0 1 0 21.914V2.421A2.421 2.421 0 0 1 2.421 0h79.948a2.421 2.421 0 0 1 2.421 2.421z" fill="#070606"/><g fill="#fff"><path d="M18.665 12.04a3.759 3.759 0 0 1 1.784-3.121 3.759 3.759 0 0 0-2.994-1.593c-1.274-.127-2.484.764-3.121.764s-1.656-.764-2.676-.7a3.95 3.95 0 0 0-3.315 2.043c-1.465 2.484-.382 6.179 1.019 8.218.7 1.019 1.529 2.1 2.548 2.039s1.4-.637 2.676-.637 1.593.637 2.676.637 1.784-1.019 2.484-1.975a7.326 7.326 0 0 0 1.147-2.293 3.837 3.837 0 0 1-2.228-3.382zM16.627 5.988a3.5 3.5 0 0 0 .828-2.612 4.2 4.2 0 0 0-2.421 1.21 3.376 3.376 0 0 0-.828 2.484 2.867 2.867 0 0 0 2.421-1.083z"/></g><g fill="#fff"><path d="M28.22 19.493h-1.21v-8.154h1.21zM31.469 11.53a12.167 12.167 0 0 1-1.147 2.867h-.764a13.887 13.887 0 0 0 .7-2.8zM37.523 19.493h-1.34l-.7-2.293h-2.485l-.7 2.293h-1.275l2.484-7.708h1.529zm-2.3-3.249l-.637-2.039-.382-1.465c-.064.319-.191.828-.382 1.465l-.637 2.039zM43.891 16.625a3.058 3.058 0 0 1-.764 2.23 2.166 2.166 0 0 1-1.72.764 1.72 1.72 0 0 1-1.593-.764v2.93h-1.21v-5.987c0-.573 0-1.21-.064-1.847h1.083v.892a2.1 2.1 0 0 1 1.911-1.018 2.166 2.166 0 0 1 1.656.764 2.994 2.994 0 0 1 .701 2.036zm-1.274.064a2.1 2.1 0 0 0-.382-1.338 1.274 1.274 0 0 0-1.083-.573 1.338 1.338 0 0 0-.828.319 1.593 1.593 0 0 0-.51.764.828.828 0 0 0-.064.382v.956a1.465 1.465 0 0 0 .382 1.019 1.338 1.338 0 0 0 2.039-.064 2.23 2.23 0 0 0 .446-1.465zM50.325 16.625a3.058 3.058 0 0 1-.764 2.23 2.166 2.166 0 0 1-1.72.764 1.72 1.72 0 0 1-1.593-.764v2.93h-1.21v-5.987c0-.573 0-1.21-.064-1.847h1.083v.892a2.1 2.1 0 0 1 1.911-1.018 2.166 2.166 0 0 1 1.72.764 3.376 3.376 0 0 1 .637 2.036zm-1.274.064a2.1 2.1 0 0 0-.382-1.338 1.274 1.274 0 0 0-1.083-.573 1.338 1.338 0 0 0-.828.319 1.593 1.593 0 0 0-.51.764.828.828 0 0 0-.064.382v.956a1.465 1.465 0 0 0 .382 1.019 1.338 1.338 0 0 0 2.039-.064 2.23 2.23 0 0 0 .446-1.465zM57.461 17.328a2.1 2.1 0 0 1-.7 1.593 3.121 3.121 0 0 1-2.1.7 3.44 3.44 0 0 1-1.975-.51l.255-1.019a3.631 3.631 0 0 0 1.784.51 1.847 1.847 0 0 0 1.083-.319 1.019 1.019 0 0 0 .375-.824 1.083 1.083 0 0 0-.319-.764 3.313 3.313 0 0 0-1.083-.573c-1.338-.51-2.039-1.274-2.039-2.23a2.166 2.166 0 0 1 .7-1.593 2.867 2.867 0 0 1 1.911-.637 3.886 3.886 0 0 1 1.784.382l-.313 1.015a2.93 2.93 0 0 0-1.465-.382 1.593 1.593 0 0 0-1.019.319 1.019 1.019 0 0 0-.319.7.892.892 0 0 0 .382.764 3.121 3.121 0 0 0 1.147.573 3.631 3.631 0 0 1 1.465.956 1.975 1.975 0 0 1 .446 1.338zM61.602 14.843h-1.338v2.679c0 .7.255 1.019.7 1.019h.573v.956l-.956.127a1.338 1.338 0 0 1-1.147-.446 2.421 2.421 0 0 1-.382-1.529v-2.87h-.763v-.957h.828v-1.018l1.21-.382v1.4h1.338v1.019zM67.717 16.69a3.058 3.058 0 0 1-.764 2.1 2.612 2.612 0 0 1-2.039.828 2.484 2.484 0 0 1-1.975-.828 2.867 2.867 0 0 1-.7-2.039 2.867 2.867 0 0 1 .764-2.1 2.845 2.845 0 0 1 4.013 0 3.058 3.058 0 0 1 .701 2.039zm-1.274 0a2.931 2.931 0 0 0-.319-1.338 1.294 1.294 0 0 0-2.23 0 2.994 2.994 0 0 0 0 2.676 1.21 1.21 0 0 0 1.147.637 1.274 1.274 0 0 0 1.083-.7 2.484 2.484 0 0 0 .317-1.275zM71.73 15.033h-.382a1.21 1.21 0 0 0-1.019.51 1.975 1.975 0 0 0-.319 1.083v2.93H68.8v-3.822a16.119 16.119 0 0 0-.064-1.784h1.083v1.083h.064a1.784 1.784 0 0 1 .637-.892 1.529 1.529 0 0 1 .892-.319h.319v1.21zM77.273 16.435a1.783 1.783 0 0 1-.064.573h-3.695a1.656 1.656 0 0 0 .51 1.274 1.847 1.847 0 0 0 1.21.382 3.886 3.886 0 0 0 1.529-.255l.191.828a4.141 4.141 0 0 1-1.847.319 2.676 2.676 0 0 1-2.039-.764 2.8 2.8 0 0 1-.764-2.039 3.313 3.313 0 0 1 .7-2.1 2.548 2.548 0 0 1 1.975-.892 2.166 2.166 0 0 1 1.847.892 3.249 3.249 0 0 1 .447 1.782zm-1.147-.319a1.529 1.529 0 0 0-.255-.956 1.147 1.147 0 0 0-1.911 0 2.166 2.166 0 0 0-.382.956z"/></g><g fill="#fff"><path d="M29.877 4.395H28.73v3.627h-.637V4.395h-1.21v-.573h3.058v.573zM33.189 6.371v.319h-1.975a.892.892 0 0 0 .319.7 1.083 1.083 0 0 0 .637.191l.828-.127.127.446a2.421 2.421 0 0 1-1.019.191 1.529 1.529 0 0 1-1.083-.382 1.529 1.529 0 0 1-.381-1.084 1.784 1.784 0 0 1 .382-1.147 1.338 1.338 0 0 1 1.019-.51 1.019 1.019 0 0 1 .956.51 2.676 2.676 0 0 1 .191.892zm-.637-.191a1.21 1.21 0 0 0-.127-.51.637.637 0 0 0-1.019 0 .7.7 0 0 0-.191.51zm.255-2.485l-.764.892h-.446l.51-.892zM34.846 7.963h-.637V3.631h.637zM38.477 6.371v.319h-1.975a.892.892 0 0 0 .319.7 1.083 1.083 0 0 0 .637.191l.828-.127.127.446a2.421 2.421 0 0 1-1.019.191 1.529 1.529 0 0 1-1.083-.382 1.529 1.529 0 0 1-.381-1.084 1.784 1.784 0 0 1 .382-1.147 1.338 1.338 0 0 1 1.019-.51 1.019 1.019 0 0 1 .956.51 1.656 1.656 0 0 1 .191.892zm-.637-.191a1.21 1.21 0 0 0-.127-.51.637.637 0 0 0-1.019 0 .7.7 0 0 0-.191.51zm.255-2.485l-.764.892h-.446l.51-.892zM41.599 5.032l-.127.51-.573-.127a.892.892 0 0 0-.7.319 1.019 1.019 0 0 0-.255.764 1.019 1.019 0 0 0 .255.764.892.892 0 0 0 .7.255l.637-.127v.51a1.593 1.593 0 0 1-.828.127 1.338 1.338 0 0 1-1.083-.446 1.529 1.529 0 0 1-.38-1.147 1.529 1.529 0 0 1 .446-1.147 1.593 1.593 0 0 1 1.21-.446zM45.102 7.963h-.637v-1.72c0-.51-.191-.828-.637-.828a.637.637 0 0 0-.637.446v2.038h-.637V3.631h.637v1.784a1.019 1.019 0 0 1 .892-.51.956.956 0 0 1 .7.255 1.338 1.338 0 0 1 .319 1.019zM48.542 7.963h-.573v-.319a1.083 1.083 0 0 1-.892.382.956.956 0 0 1-.7-.255 1.147 1.147 0 0 1-.255-.637.892.892 0 0 1 .382-.828 1.975 1.975 0 0 1 1.274-.255c0-.382-.191-.573-.637-.573a1.338 1.338 0 0 0-.764.191l-.127-.446a1.72 1.72 0 0 1 1.018-.252c.764 0 1.147.382 1.147 1.21v1.083a4.523 4.523 0 0 0 .127.7zm-.7-1.019v-.446c-.764 0-1.083.191-1.083.637a.892.892 0 0 0 .127.382l.319.127.382-.127a.573.573 0 0 0 .255-.382zM51.218 5.542h-.193a.637.637 0 0 0-.573.255.892.892 0 0 0-.191.573v1.593h-.636V4.968h.573v.573a.828.828 0 0 1 .319-.446.7.7 0 0 1 .508-.19h.191zM54.722 4.971v2.548a1.593 1.593 0 0 1-.446 1.338 1.529 1.529 0 0 1-1.083.382 1.593 1.593 0 0 1-1.019-.255l.127-.51a1.784 1.784 0 0 0 .828.255c.573 0 .892-.319.892-.956v-.319a.956.956 0 0 1-.892.446 1.147 1.147 0 0 1-.892-.382 1.465 1.465 0 0 1-.379-1.02 1.529 1.529 0 0 1 .382-1.147 1.274 1.274 0 0 1 .892-.382.956.956 0 0 1 .892.446v-.382zm-.7 1.72v-.51a.723.723 0 0 0-1.274-.446 1.338 1.338 0 0 0-.191.764 1.147 1.147 0 0 0 .191.7.7.7 0 0 0 .573.319l.382-.127a.573.573 0 0 0 .255-.382.573.573 0 0 0 .063-.32zM58.352 6.37v.319h-1.975a.892.892 0 0 0 .319.7 1.083 1.083 0 0 0 .637.191l.828-.127.127.446a2.421 2.421 0 0 1-1.019.191 1.529 1.529 0 0 1-1.083-.382 1.529 1.529 0 0 1-.381-1.083 1.784 1.784 0 0 1 .382-1.147 1.338 1.338 0 0 1 1.018-.508 1.019 1.019 0 0 1 .956.51 1.656 1.656 0 0 1 .191.892zm-.637-.191a1.21 1.21 0 0 0-.127-.51.637.637 0 0 0-1.019 0 .7.7 0 0 0-.191.51zM60.901 5.542h-.193a.637.637 0 0 0-.573.255.892.892 0 0 0-.191.573v1.593h-.636V4.968h.573v.573a.828.828 0 0 1 .319-.446.7.7 0 0 1 .508-.19h.191zM66.25 7.963h-.573v-.51a1.1 1.1 0 0 1-1.847.127 1.529 1.529 0 0 1-.38-1.082 1.847 1.847 0 0 1 .382-1.21 1.338 1.338 0 0 1 .956-.446.892.892 0 0 1 .828.382V3.631h.637zm-.7-1.274v-.7a.573.573 0 0 0-.255-.382.573.573 0 0 0-.445-.192.7.7 0 0 0-.573.319 1.338 1.338 0 0 0-.191.764 1.147 1.147 0 0 0 .191.7.7.7 0 0 0 .573.319.573.573 0 0 0 .51-.255.764.764 0 0 0 .191-.573zM69.628 7.963h-.573v-.319a1.083 1.083 0 0 1-.892.382.956.956 0 0 1-.7-.255 1.147 1.147 0 0 1-.255-.637.892.892 0 0 1 .446-.828 1.975 1.975 0 0 1 1.274-.255c0-.382-.191-.573-.637-.573a1.338 1.338 0 0 0-.764.191v-.51a1.72 1.72 0 0 1 1.019-.255c.764 0 1.147.382 1.147 1.21v1.084a4.333 4.333 0 0 1-.064.764zm-.637-1.019v-.447c-.764 0-1.083.191-1.083.637a.892.892 0 0 0 .127.382l.319.127.382-.127a.573.573 0 0 0 .255-.382zM73.387 7.963h-.637V6.242q0-.764-.573-.764a.637.637 0 0 0-.7.7v1.784h-.638V4.969h.573v.446l.319-.382a1.019 1.019 0 0 1 .573-.191.956.956 0 0 1 .7.255 1.21 1.21 0 0 1 .319 1.019v1.847zM76.381 7.135a1.019 1.019 0 0 1-.319.7 1.147 1.147 0 0 1-.828.255 2.038 2.038 0 0 1-.892-.191l.127-.51a1.529 1.529 0 0 0 .764.191c.319 0 .51-.127.51-.382a.319.319 0 0 0-.127-.255l-.382-.191c-.51-.191-.828-.51-.828-.892a.892.892 0 0 1 .319-.637 1.019 1.019 0 0 1 .764-.255 1.338 1.338 0 0 1 .764.191l-.127.51a1.083 1.083 0 0 0-.637-.191l-.319.127a.319.319 0 0 0 0 .51l.382.191c.574.128.829.383.829.829z"/></g></svg>