<svg viewBox="0 0 22.657 35.158" xmlns="http://www.w3.org/2000/svg" fill="#fff">
    <path d="M68.406,72.73H54.276a4.26,4.26,0,0,1-4.263-4.247V62.745a1.069,1.069,0,0,1,1.069-1.069H65.945a1.069,1.069,0,1,1,0,2.139H52.152v4.67a2.118,2.118,0,0,0,2.125,2.108h14.13a2.119,2.119,0,0,0,2.125-2.108V41.819a2.119,2.119,0,0,0-2.125-2.109H54.276a2.119,2.119,0,0,0-2.125,2.109V56.483a1.069,1.069,0,0,1-2.139,0V41.819a4.26,4.26,0,0,1,4.263-4.247h14.13a4.26,4.26,0,0,1,4.264,4.247V68.484A4.26,4.26,0,0,1,68.406,72.73Z" transform="translate(-50.013 -37.572)" />
    <ellipse cx="1.095" cy="1.095" rx="1.095" ry="1.095" transform="translate(10.426 28.567)" />
</svg>