<svg id="Calque_1" data-name="Calque 1" xmlns="http://www.w3.org/2000/svg" viewBox="0 0 363.53 350.33"><defs><style>.cls-1{fill:none;}.cls-1,.cls-2{stroke:#fff;stroke-miterlimit:10;stroke-width:17px;}.cls-2{fill:#009db8;}</style></defs><path class="cls-1" d="M210.37,370.14l-1,74.09,93-81.17,43.92.12a120.93,120.93,0,0,0,0-241.86H241.67a120.94,120.94,0,0,0-98,191.81" transform="translate(-112.23 -112.82)"/><circle class="cls-2" cx="63.94" cy="228.06" r="12.89"/><path class="cls-1" d="M354.47,252.78A42.76,42.76,0,0,0,294,192.3" transform="translate(-112.23 -112.82)"/><polyline class="cls-1" points="121.29 139.96 181.76 205.12 242.24 139.96"/><path class="cls-1" d="M233.52,252.78A42.77,42.77,0,0,1,294,192.3" transform="translate(-112.23 -112.82)"/><rect class="cls-1" x="57.92" y="220.7" width="12.04" height="10.43"/></svg>