<svg xmlns="http://www.w3.org/2000/svg" xmlns:xlink="http://www.w3.org/1999/xlink" width="55" height="55" viewBox="0 0 82.093 78.852"><defs><clipPath id="a"><rect width="82.093" height="78.851" fill="none"></rect></clipPath></defs><g transform="translate(41.047 39.426)"><g transform="translate(-41.046 -39.426)" clip-path="url(#a)"><path d="M6.458,34.629a3.229,3.229,0,1,0-3.229,3.229,3.229,3.229,0,0,0,3.229-3.229" transform="translate(0 7.597)" fill="#ffffff"></path><path d="M59.171,16.01A13.786,13.786,0,0,0,31.6,15.762" transform="translate(7.646 0.508)" fill="none" stroke="#ffffff" stroke-linecap="round" stroke-linejoin="round" stroke-width="4.968"></path><line x2="33.657" transform="translate(11.053 41.978)" stroke-width="4.968" stroke="#ffffff" stroke-linecap="round" stroke-linejoin="round" fill="none"></line><line x2="20.492" transform="translate(15.773 52.162)" stroke-width="4.968" stroke="#ffffff" stroke-linecap="round" stroke-linejoin="round" fill="none"></line><path d="M21.082,26.9l-.248-1.739c-1.118-5.713,3.6-5.465,3.6-5.465l46.076.373a4.1,4.1,0,0,1,3.974,4.968L69.145,61.8a4.1,4.1,0,0,1-4.1,3.353" transform="translate(4.999 4.766)" fill="none" stroke="#ffffff" stroke-linecap="round" stroke-linejoin="round" stroke-width="4.968"></path><path d="M64.167,57.7H29.392a4.1,4.1,0,0,1-4.1-3.353L24.3,50.5" transform="translate(5.879 12.219)" fill="none" stroke="#ffffff" stroke-linecap="round" stroke-linejoin="round" stroke-width="4.968"></path></g></g></svg>