<svg xmlns="http://www.w3.org/2000/svg" viewBox="0 0 84.51 30.88" fill="#ffffff" width="34px" height="25px"><path id="Tracé_10876" data-name="Tracé 10876" d="M18.62,6.87H9.46a1.31,1.31,0,1,0,0,2.62h9.16a1.31,1.31,0,1,0,0-2.62Z"/><path id="Tracé_10877" data-name="Tracé 10877" d="M10.55,15.78H3.06a1.31,1.31,0,0,0,0,2.62h7.49a1.31,1.31,0,0,0,0-2.62Z"/><path id="Tracé_10878" data-name="Tracé 10878" d="M15.57,11.27H1.31a1.31,1.31,0,1,0,0,2.62H15.57a1.31,1.31,0,0,0,0-2.62Z"/><path id="Tracé_10879" data-name="Tracé 10879" d="M73.91,24.06A1.22,1.22,0,1,0,72.7,25.3a1.22,1.22,0,0,0,1.21-1.24Z"/><path id="Tracé_10880" data-name="Tracé 10880" d="M34.93,24.06a1.22,1.22,0,1,0-1.22,1.24,1.24,1.24,0,0,0,1.22-1.24Z"/><path id="Tracé_10881" data-name="Tracé 10881" d="M81.7,12.78A9.25,9.25,0,0,0,75,9.94H71.5a3.59,3.59,0,0,1-2.77-1.33c-.21-.27-.46-.54-.72-.83l-.08-.1c-.29-.32-.61-.65-1-1l-.08-.08c-.36-.35-.74-.72-1.21-1.13A19.72,19.72,0,0,0,54.27,0H30.63a3.35,3.35,0,0,0-3.21,2.49l-.1.45L27.6,3h-.29v.5c-1.11,1.33-5.77,7.15-6.6,11.44a1.5,1.5,0,0,0-.06.29v.26a.27.27,0,0,0,0,.12,1.31,1.31,0,0,0,2.58,0v0c0-.1,0-.2.07-.31l.72-2.07a43.17,43.17,0,0,1,5.57-8.34A1.37,1.37,0,0,0,29.94,4V3.34a.72.72,0,0,1,.69-.71H49.44v10a1.29,1.29,0,1,0,2.58,0v-10h2.11A12.82,12.82,0,0,1,59.92,4.5l.16.11a35.67,35.67,0,0,1,7,6.08,6.13,6.13,0,0,0,4.42,1.87H75a6.68,6.68,0,0,1,5.11,2.38H78.55a1.32,1.32,0,0,0,0,2.63h3a7.25,7.25,0,0,1,.3,2.07v4.3a3.17,3.17,0,0,1-.76.11c-.39,0-3.5,0-3.5,0h-.1a.34.34,0,0,0-.3.24,4.56,4.56,0,0,1-8.9.38.3.3,0,0,0-.23-.22l-27.25,0H38.52a.28.28,0,0,0-.27.21,4.56,4.56,0,0,1-8.82,0,.3.3,0,0,0-.27-.21l-3.56,0A4,4,0,0,1,24,22.25a1.42,1.42,0,1,0-2.73.76l0,.09a6.81,6.81,0,0,0,3.28,4,1.42,1.42,0,0,0,.6.14h2.26a7.39,7.39,0,0,0,12.84-.16H66.26a7.39,7.39,0,0,0,13.09-.31l4-.46A1.32,1.32,0,0,0,84.51,25V19.64A9.78,9.78,0,0,0,81.7,12.78Z"/></svg>