<svg xmlns="http://www.w3.org/2000/svg" width="86" height="25.482"><defs><linearGradient id="a" x1=".807" y1=".5" x2="-1.575" y2=".5" gradientUnits="objectBoundingBox"><stop offset="0" stop-color="gold"/><stop offset=".08" stop-color="#fecf01"/><stop offset=".48" stop-color="#fca705"/><stop offset=".8" stop-color="#fb8f07"/><stop offset="1" stop-color="#fa8608"/></linearGradient><linearGradient id="b" x1=".863" y1=".177" x2="-.499" y2="1.934" gradientUnits="objectBoundingBox"><stop offset="0" stop-color="#e82b36"/><stop offset="1" stop-color="#b4005a"/></linearGradient><linearGradient id="c" x1="-.505" y1="-.956" x2=".607" y2=".489" gradientUnits="objectBoundingBox"><stop offset="0" stop-color="#2f8e5b"/><stop offset=".39" stop-color="#4fa257"/><stop offset=".77" stop-color="#67b054"/><stop offset="1" stop-color="#70b653"/></linearGradient></defs><g><rect width="86" height="25.482" rx="3.185" fill="#030404"/><path d="M43.382 13.888a2.739 2.739 0 1 0 2.739 2.676 2.676 2.676 0 0 0-2.739-2.676zm0 4.332a1.656 1.656 0 1 1 1.529-1.656 1.593 1.593 0 0 1-1.529 1.656zm-5.924-4.332a2.739 2.739 0 1 0 2.739 2.676 2.676 2.676 0 0 0-2.739-2.676zm0 4.332a1.656 1.656 0 1 1 1.524-1.657 1.593 1.593 0 0 1-1.529 1.656zm-7.071-3.5v1.147h2.739a2.421 2.421 0 0 1-.637 1.465 2.8 2.8 0 0 1-2.1.828 3.058 3.058 0 0 1 0-6.116 2.93 2.93 0 0 1 2.1.764l.828-.828a4.013 4.013 0 0 0-2.935-1.149 4.2045 4.2045 0 1 0 0 8.409 3.806 3.806 0 0 0 3.95-3.886 3.759 3.759 0 0 0-.064-.7zm28.858.892a2.493 2.493 0 0 0-4.842 1.019 2.67 2.67 0 0 0 4.905 1.529l-.892-.637a1.529 1.529 0 0 1-1.334.76 1.4 1.4 0 0 1-1.338-.828l3.628-1.524zm-3.695.892a1.465 1.465 0 0 1 1.4-1.593 1.019 1.019 0 0 1 1.019.573zm-2.93 2.612h1.21v-7.968h-1.21zm-1.975-4.65h-.063a1.847 1.847 0 0 0-1.4-.637 2.739 2.739 0 0 0 0 5.415 1.847 1.847 0 0 0 1.4-.637h.064v.382a1.41 1.41 0 0 1-1.464 1.588 1.529 1.529 0 0 1-1.338-.956l-1.019.446a2.612 2.612 0 0 0 2.421 1.593c1.4 0 2.548-.828 2.548-2.8v-4.845h-1.086zm-1.338 3.759a1.6565 1.6565 0 0 1 0-3.313 1.529 1.529 0 0 1 1.465 1.656 1.529 1.529 0 0 1-1.465 1.656zm15.544-7.071h-2.869v7.957h1.21v-2.994h1.656a2.4845 2.4845 0 0 0 0-4.969zm0 3.822h-1.657v-2.745h1.72a1.37 1.37 0 0 1 0 2.739zm7.326-1.147a2.23 2.23 0 0 0-2.1 1.21l1.083.446a1.268 1.268 0 0 1 2.357.446 2.612 2.612 0 0 0-1.21-.319c-1.147 0-2.293.637-2.293 1.784a1.847 1.847 0 0 0 1.968 1.779 1.656 1.656 0 0 0 1.529-.764h.071v.637h1.147v-2.994a2.316 2.316 0 0 0-2.484-2.23zm-.127 4.4c-.382 0-.956-.191-.956-.7s.7-.828 1.274-.828a2.1 2.1 0 0 1 1.083.255 1.465 1.465 0 0 1-1.338 1.274zm6.753-4.2l-1.338 3.44h-.064l-1.4-3.44h-1.277l2.1 4.841-1.208 2.661h1.21l3.313-7.517zm-10.7 5.1h1.21v-7.981h-1.21z" fill="#fff"/><path d="M6.625 4.778a1.274 1.274 0 0 0-.255.956v14.014a1.274 1.274 0 0 0 .319.892h.064l7.836-7.836-7.9-8.026z" fill="#40bff2"/><path d="M25.512 21.179L22.9 18.567l2.612-2.867h.064l3.124 1.847a.972.972 0 0 1 0 1.847l-3.121 1.784z" transform="translate(-8.312 -5.698)" fill="url(#a)"/><path d="M21.039 22.676L18.363 20 10.4 27.963a1.019 1.019 0 0 0 1.338.064l9.3-5.287" transform="translate(-3.775 -7.259)" fill="url(#b)"/><path d="M21.039 12.662l-9.3-5.287a1.019 1.019 0 0 0-1.338.064l7.963 7.9z" transform="translate(-3.775 -2.597)" fill="url(#c)"/><g fill="#fff" stroke="#fff" stroke-miterlimit="10" stroke-width=".127"><path d="M26.31 8.282V4.461h1.147a1.911 1.911 0 0 1 1.4.51 1.847 1.847 0 0 1 .51 1.4 1.847 1.847 0 0 1-.51 1.4 1.911 1.911 0 0 1-1.4.51zm.51-.446h.7a1.465 1.465 0 0 0 1.019-.382 1.4 1.4 0 0 0 .382-1.083 1.323 1.323 0 0 0-1.4-1.465h-.764zM30.069 8.282V4.46h.51v3.822zM32.553 8.346a1.4 1.4 0 0 1-.828-.255 1.274 1.274 0 0 1-.51-.765l.446-.191a1.019 1.019 0 0 0 .319.51.828.828 0 0 0 .573.191.892.892 0 0 0 .573-.191.51.51 0 0 0 .255-.446.573.573 0 0 0-.255-.51l-.7-.319a1.911 1.911 0 0 1-.764-.382.892.892 0 0 1-.255-.637.956.956 0 0 1 .319-.7 1.274 1.274 0 0 1 1.529 0 1.147 1.147 0 0 1 .382.51l-.446.191a.637.637 0 0 0-.255-.319l-.446-.191-.51.127a.51.51 0 0 0-.191.382.446.446 0 0 0 .191.382l.573.255.446.191.382.255.319.382a1.147 1.147 0 0 1 .127.51 1.083 1.083 0 0 1-.127.51l-.319.319-.382.191zM35.038 8.282h-.51V4.46h1.274a1.21 1.21 0 0 1 .828.319 1.083 1.083 0 0 1 0 1.656 1.21 1.21 0 0 1-.828.319h-.764zm0-2.039h.828a.639.639 0 1 0 0-1.274h-.828zM40.77 7.773a2 2 0 1 1 .573-1.4 1.975 1.975 0 0 1-.573 1.4zm-2.421-.319a1.5 1.5 0 0 0 2.545-1.083 1.488 1.488 0 0 0-2.548-1.083 1.538 1.538 0 0 0 0 2.166zM41.981 8.282V4.46h.573l1.847 2.994V4.46h.51v3.822h-.51l-1.91-3.122v3.121zM45.803 8.282V4.46h.51v3.822zM47.205 8.282V4.46h1.4a1.147 1.147 0 0 1 .764.319.956.956 0 0 1 .319.7.828.828 0 0 1-.127.51l-.382.319a.955.955 0 0 1 .446.319.892.892 0 0 1 .191.573 1.019 1.019 0 0 1-.319.764 1.147 1.147 0 0 1-.828.319zm.51-2.166h.89a.605.605 0 1 0 0-1.21h-.89zm0 1.72h1.019a.573.573 0 0 0 .446-.191.631.631 0 0 0-.446-1.085h-1.019zM50.454 8.282V4.46h.51v3.376h1.656v.446zM55.487 4.906h-1.72v1.21h1.59v.444h-1.59v1.21h1.72v.51h-2.23V4.46h2.23zM58.417 8.345a1.4 1.4 0 0 1-.828-.255 1.274 1.274 0 0 1-.51-.764l.446-.191a1.019 1.019 0 0 0 .319.51.828.828 0 0 0 .573.191.892.892 0 0 0 .573-.191.51.51 0 0 0 .255-.446.573.573 0 0 0-.255-.51l-.7-.319a1.911 1.911 0 0 1-.764-.382.892.892 0 0 1-.255-.637.956.956 0 0 1 .319-.7 1.254 1.254 0 0 1 1.589-.064 1.147 1.147 0 0 1 .382.51l-.446.191a.637.637 0 0 0-.255-.319l-.51-.127-.51.127a.51.51 0 0 0-.191.382.446.446 0 0 0 .191.382l.573.255.446.191.382.255.319.382a1.146 1.146 0 0 1 .127.51 1.083 1.083 0 0 1-.127.51l-.319.319-.382.191zM61.729 8.346A1.338 1.338 0 0 1 60.71 7.9a1.529 1.529 0 0 1-.381-1.083V4.46h.51v2.421a1.083 1.083 0 0 0 .255.764.956.956 0 0 0 1.338 0 1.083 1.083 0 0 0 .255-.764V4.46h.51v2.421a1.529 1.529 0 0 1-.382 1.083 1.338 1.338 0 0 1-1.083.382zM63.959 8.282V4.46h1.274a1.21 1.21 0 0 1 .828.319 1.083 1.083 0 0 1 .064 1.529 1.147 1.147 0 0 1-.637.382l1.083 1.529h-.573l-1.019-1.465h-.573v1.529zm.51-2.039h.764a.7.7 0 0 0 .51-.191.637.637 0 0 0 .191-.51.7.7 0 0 0-.191-.446.637.637 0 0 0-.51-.191h-.828z"/></g></g></svg>