<svg xmlns="http://www.w3.org/2000/svg" width="28.26" height="28.26" viewBox="0 0 28.26 28.26"><path d="M44.324,31.74c3.773,0,4.219.014,5.71.082a7.824,7.824,0,0,1,2.624.486,4.678,4.678,0,0,1,2.682,2.682,7.824,7.824,0,0,1,.486,2.624c.068,1.49.082,1.937.082,5.71s-.014,4.22-.082,5.71a7.824,7.824,0,0,1-.486,2.624,4.678,4.678,0,0,1-2.682,2.682,7.824,7.824,0,0,1-2.624.486c-1.49.068-1.937.082-5.71.082s-4.22-.014-5.71-.082a7.824,7.824,0,0,1-2.624-.486,4.678,4.678,0,0,1-2.682-2.682,7.824,7.824,0,0,1-.486-2.624c-.068-1.49-.082-1.937-.082-5.71s.014-4.219.082-5.71a7.824,7.824,0,0,1,.486-2.624,4.678,4.678,0,0,1,2.682-2.682,7.824,7.824,0,0,1,2.624-.486c1.49-.068,1.937-.082,5.71-.082m0-2.546c-3.838,0-4.319.016-5.826.085a10.372,10.372,0,0,0-3.43.657,7.222,7.222,0,0,0-4.133,4.133,10.372,10.372,0,0,0-.657,3.43c-.069,1.507-.085,1.988-.085,5.826s.016,4.319.085,5.826a10.372,10.372,0,0,0,.657,3.43,7.222,7.222,0,0,0,4.133,4.133,10.372,10.372,0,0,0,3.43.657c1.507.069,1.988.085,5.826.085s4.318-.016,5.826-.085a10.372,10.372,0,0,0,3.43-.657,7.222,7.222,0,0,0,4.133-4.133,10.372,10.372,0,0,0,.657-3.43c.069-1.507.085-1.988.085-5.826s-.016-4.318-.085-5.826a10.372,10.372,0,0,0-.657-3.43,7.222,7.222,0,0,0-4.133-4.133,10.372,10.372,0,0,0-3.43-.657c-1.507-.069-1.988-.085-5.826-.085Z" transform="translate(-30.194 -29.194)" fill="#fff"/><path d="M52.885,44.629a7.256,7.256,0,1,0,7.256,7.256A7.256,7.256,0,0,0,52.885,44.629Zm0,11.966a4.71,4.71,0,1,1,4.71-4.71A4.71,4.71,0,0,1,52.885,56.595Z" transform="translate(-38.755 -37.755)" fill="#fff"/><ellipse cx="1.696" cy="1.696" rx="1.696" ry="1.696" transform="translate(19.977 4.892)" fill="#fff"/></svg>