<svg xmlns="http://www.w3.org/2000/svg" width="61.43" height="45.4"><path d="M46.67 45.4a7.33 7.33 0 0 1-7.14-5.87l-9.74.01a7.3 7.3 0 0 1-14.35-.15H1.51a1.51 1.51 0 1 1 0-3.02h15.36a1.51 1.51 0 0 1 1.48 1.8 4.28 4.28 0 0 0 8.55-.04 1.76 1.76 0 0 1 1.68-1.6l12.3-.03a1.51 1.51 0 0 1 1.5 1.28v.2a4.38 4.38 0 0 0 4.28 4.35 4.26 4.26 0 0 0 4.27-4.25 1.95 1.95 0 0 1 1.84-1.6h3.2a2.42 2.42 0 0 0 2.43-2.36v-7.06a15.42 15.42 0 0 0-5.5-11.32c-3.07-2.56-6.52-2.55-10.51-2.51v10.6a1.51 1.51 0 0 1-3.02 0V9.6a6.6 6.6 0 0 0-6.61-6.57H7.94v25.91a1.51 1.51 0 0 1-1.5 1.51h-4.6a1.51 1.51 0 0 1 0-3.02h3.09V1.52A1.51 1.51 0 0 1 6.43 0h26.34a9.62 9.62 0 0 1 9.63 9.59v.62c4.38-.04 8.53-.05 12.45 3.21a18.3 18.3 0 0 1 6.58 13.64v7.06a5.44 5.44 0 0 1-5.45 5.43h-2.15a7.3 7.3 0 0 1-7.16 5.85z" fill="#fff"/><path d="M24.25 38.01a1.59 1.59 0 1 0-1.58 1.59A1.58 1.58 0 0 0 24.25 38M48.26 38.01a1.59 1.59 0 1 0-1.59 1.59A1.58 1.58 0 0 0 48.26 38" fill="#fff"/></svg>