<svg xmlns="http://www.w3.org/2000/svg" width="81.22" height="83.1" viewBox="0 0 81.22 83.1">
	<path d="M46.2 83.1a2.05 2.05 0 0 1-.7-.13c-.25-.1-24.43-9.1-31.37-11.63a2.05 2.05 0 0 1-1.01-3.05c3.91-5.98 5.02-12.35 5.68-16.16a22.99 22.99 0 0 1 .64-3 2.06 2.06 0 0 1 .67-.96c-4-15.63-13.85-18.77-17.18-19.83l-.8-.27a2.05 2.05 0 0 1-1.27-1.49c-.31-1.44-1.01-4.96-.83-6.43a2.05 2.05 0 0 1 1.64-1.76c.27-.05 6.7-1.3 10.77-1.62a1.99 1.99 0 0 1 1.22.28 33.8 33.8 0 0 0 5.94 2.12A28.19 28.19 0 0 0 18.19 13a2.05 2.05 0 0 1 1.37-2.71 9.25 9.25 0 0 1 5.22.36 2.03 2.03 0 0 1 .97.73c1.76 2.4 2.37 2.74 2.48 2.79a.79.79 0 0 1 .23-.06l.18-.03a93.58 93.58 0 0 0 10.53-6.72 30.21 30.21 0 0 0 .6-4.65 2.05 2.05 0 0 1 1.76-1.9l5.58-.8a2.05 2.05 0 0 1 1.78.62 58.7 58.7 0 0 0 2.72 2.67 2.05 2.05 0 0 1-2.77 3.02 64.3 64.3 0 0 1-2.18-2.1l-2.93.42c-.39 4.13-1.02 4.91-1.27 5.23-.77.97-11.08 8-13.16 8.25l-.23.04c-2.3.34-3.7-.48-6.18-3.77.65 2.59 1.23 6.05.61 8.05A2.05 2.05 0 0 1 21 23.8a57.24 57.24 0 0 1-8.83-2.91c-2.54.25-5.92.82-7.95 1.18.1.73.26 1.63.42 2.5 10.63 3.56 17.37 12 20.03 25.1a2.05 2.05 0 0 1-1.7 2.44l-.12.7a48.2 48.2 0 0 1-4.98 15.52c7.14 2.63 21.43 7.95 26.88 9.98.68-3.33 1.7-8.35 7.99-9.64 5.29-1.09 10.1 2.21 12.42 4.2 3.7-3.24 7.56-6.55 9.38-8.1-1.12-3.26-3.94-11.67-5.28-17.62a16.1 16.1 0 0 0-1.8.54 2.05 2.05 0 0 1-2.32-3.22c.3-.35 6.96-8.45 8.34-10.08.14-.46.32-1.7.46-2.7a33.4 33.4 0 0 1 2.14-8.9q-1.02-.36-2.08-.79a2.05 2.05 0 0 1 1.53-3.8c1.47.59 2.9 1.1 4.25 1.51a2.05 2.05 0 0 1 .94 3.3c-1.67 1.92-2.3 6.33-2.72 9.25-.37 2.62-.57 3.82-1.27 4.63l-5.02 6.05a2.05 2.05 0 0 1 1.18 1.5c1.23 6.79 5.93 20.15 5.98 20.28a2.05 2.05 0 0 1-.6 2.25c-.07.05-6.44 5.47-11.8 10.19a2.05 2.05 0 0 1-2.86-.15c-.04-.05-5.05-5.35-10.05-4.33-3.46.71-4.08 2.91-4.8 6.44a25.15 25.15 0 0 1-.6 2.52 2.05 2.05 0 0 1-1.95 1.44zM28.8 14.06l-.09.01z" fill="#ffffff"></path>
	<circle cx="1.97" cy="1.97" r="1.97" fill="#ffffff" transform="translate(53.21 6.23)"></circle>
</svg>