<svg xmlns="http://www.w3.org/2000/svg" width="60.72" height="49.3"><path d="M35.85 19.16a1.49 1.49 0 0 0 2.11-2.1 9.18 9.18 0 0 0-14.95 2.84l-.05.13h-.9a1.49 1.49 0 1 0 0 2.98h7.65a1.49 1.49 0 1 0 0-2.98h-3.4l.27-.34a6.2 6.2 0 0 1 9.27-.53zM37.95 28.68a1.49 1.49 0 0 0-2.11 0 6.2 6.2 0 0 1-8.7.07l-.37-.36h3.1a1.47 1.47 0 0 0 .15-.01 1.49 1.49 0 0 0-.15-2.97h-7.66a1.49 1.49 0 0 0 0 2.98h1.03l.06.11a9.18 9.18 0 0 0 14.65 2.28 1.49 1.49 0 0 0 0-2.1z" fill="#fff"/><g><path d="M30.24 49.3a24.76 24.76 0 0 1-23.4-16.82L2.4 35.75a1.51 1.51 0 1 1-1.8-2.42l6.18-4.58a1.51 1.51 0 0 1 2.36.87 21.68 21.68 0 0 0 42.63-2.58 1.51 1.51 0 0 1 3 .34A24.72 24.72 0 0 1 30.24 49.3zM53.03 20.84a1.51 1.51 0 0 1-1.47-1.16 21.68 21.68 0 0 0-41.88-1.13 1.51 1.51 0 0 1-2.9-.86 24.7 24.7 0 0 1 47.1-.87l4.42-3.28a1.51 1.51 0 0 1 1.8 2.43l-6.17 4.57a1.5 1.5 0 0 1-.9.3z" fill="#fff"/><ellipse cx="1.5" cy="1.5" rx="1.5" ry="1.5" fill="#fff" transform="translate(5.73 22.54)"/></g></svg>