<svg xmlns="http://www.w3.org/2000/svg" width="45.77" height="45.77"><path d="M43.14 30.43a8.98 8.98 0 0 0-8.87-2.28l-5.47-5.48 8.83-8.83h2.77a1.31 1.31 0 0 0 1.16-.71l3.67-7.15a1.31 1.31 0 0 0-.24-1.53L41.32.8a1.31 1.31 0 0 0-1.53-.25l-7.15 3.67a1.31 1.31 0 0 0-.71 1.17v2.77l-8.83 8.83-5.48-5.48A8.99 8.99 0 0 0 5.02.93a1.31 1.31 0 0 0-.35 2.1l3.22 3.22-1.64 1.63-3.21-3.21A1.31 1.31 0 0 0 .93 5a8.99 8.99 0 0 0 10.57 12.6l2.9 2.92L2.66 32.29a7.66 7.66 0 0 0 10.83 10.83l8.95-8.95a1.31 1.31 0 0 0-1.86-1.86l-8.95 8.95a5.03 5.03 0 0 1-7.12-7.11l12.7-12.69a1.31 1.31 0 0 0 0-1.86l-4.43-4.42a1.31 1.31 0 0 0-1.41-.29A6.36 6.36 0 0 1 2.7 8.04l2.62 2.63a1.31 1.31 0 0 0 1.86 0l3.5-3.5a1.31 1.31 0 0 0 0-1.85L8.04 2.7a6.36 6.36 0 0 1 6.84 8.66 1.31 1.31 0 0 0 .3 1.41l17.8 17.82a1.31 1.31 0 0 0 1.42.29 6.36 6.36 0 0 1 8.66 6.84l-2.62-2.62a1.31 1.31 0 0 0-1.86 0l-3.5 3.49a1.31 1.31 0 0 0 0 1.86l2.63 2.62a6.36 6.36 0 0 1-6.84-8.66 1.31 1.31 0 0 0-.3-1.42L21 23.41a1.31 1.31 0 1 0-1.85 1.86l9 9a8.99 8.99 0 0 0 12.6 10.57 1.31 1.31 0 0 0 .35-2.1l-3.22-3.22 1.64-1.64 3.21 3.22a1.31 1.31 0 0 0 2.11-.35 8.98 8.98 0 0 0-1.7-10.32zM34.17 9.62a1.31 1.31 0 0 0 .38-.93V6.18l5.59-2.86 2.3 2.31-2.85 5.59h-2.51a1.32 1.32 0 0 0-.93.38l-9.22 9.22-1.98-1.99z" fill="#fff"/><path d="M6.33 37.7a1.74 1.74 0 1 0 1.73-1.73 1.74 1.74 0 0 0-1.73 1.73z" fill="#fff"/></svg>