<svg xmlns="http://www.w3.org/2000/svg" width="30.434" height="24.733" viewBox="0 0 30.434 24.733"><path d="M54.021,33.538a12.493,12.493,0,0,1-3.586.983,6.263,6.263,0,0,0,2.746-3.454,12.5,12.5,0,0,1-3.965,1.515,6.25,6.25,0,0,0-10.64,5.7,17.728,17.728,0,0,1-12.87-6.524,6.251,6.251,0,0,0,1.932,8.336,6.22,6.22,0,0,1-2.828-.781c0,.026,0,.052,0,.078a6.248,6.248,0,0,0,5.009,6.123,6.254,6.254,0,0,1-2.82.107,6.25,6.25,0,0,0,5.833,4.336,12.53,12.53,0,0,1-7.755,2.673,12.7,12.7,0,0,1-1.489-.087,17.672,17.672,0,0,0,9.571,2.805c11.485,0,17.765-9.514,17.765-17.766q0-.405-.018-.808A12.689,12.689,0,0,0,54.021,33.538Z" transform="translate(-23.587 -30.61)" fill="#fff"/></svg>