<?xml version="1.0" encoding="utf-8"?>
<!-- Generator: Adobe Illustrator 23.0.3, SVG Export Plug-In . SVG Version: 6.00 Build 0)  -->
<svg version="1.1" id="Calque_1" xmlns="http://www.w3.org/2000/svg" xmlns:xlink="http://www.w3.org/1999/xlink" x="0px" y="0px"
	 viewBox="0 0 34.9 34.9" style="enable-background:new 0 0 34.9 34.9;" xml:space="preserve">
<style type="text/css">
	.st0{fill:#0463C1;}
	.st1{fill:#00B3F0;}
</style>
<g>
	<g>
		<path class="st0" d="M4.9,34.9C2.2,34.9,0,32.7,0,30V18.3c0-2.7,2.2-4.9,4.9-4.9h2.5V7.6c0-4.2,3.5-7.6,7.8-7.6S23,3.4,23,7.6v5.8
			h2.5c2.7,0,4.9,2.2,4.9,4.9v2.8c0,0.4-0.3,0.7-0.7,0.7S29,21.5,29,21.1v-2.8c0-2-1.6-3.6-3.6-3.6H4.9c-2,0-3.6,1.6-3.6,3.6v11.6
			c0,2,1.6,3.6,3.6,3.6h11.2c0.4,0,0.7,0.3,0.7,0.7s-0.3,0.7-0.7,0.7C16.1,34.9,4.9,34.9,4.9,34.9z M15.1,1.4
			c-3.6,0-6.4,2.8-6.4,6.2v5.8h12.9V7.6C21.5,4.2,18.6,1.4,15.1,1.4z"/>
		<path class="st1" d="M25.4,34.9c-0.7,0-1.5-0.3-2-0.8l-4.5-4.4c-0.3-0.3-0.3-0.7,0-0.9c0.1-0.1,0.3-0.2,0.5-0.2s0.3,0.1,0.5,0.2
			l4.5,4.4c0.3,0.3,0.7,0.4,1.1,0.4h0.1c0.4,0,0.8-0.2,1.1-0.5l7-9.8c0.1-0.2,0.3-0.3,0.5-0.3c0.1,0,0.3,0,0.4,0.1
			c0.3,0.2,0.4,0.6,0.2,0.9l-7,9.8c-0.5,0.7-1.3,1.1-2.1,1.1C25.5,34.9,25.4,34.9,25.4,34.9z"/>
	</g>
	<g>
		<circle class="st1" cx="23.2" cy="23.9" r="1.4"/>
		<circle class="st1" cx="17.8" cy="23.9" r="1.4"/>
		<circle class="st1" cx="7.1" cy="23.9" r="1.4"/>
		<circle class="st1" cx="12.5" cy="23.9" r="1.4"/>
	</g>
</g>
</svg>
