<svg xmlns="http://www.w3.org/2000/svg" viewBox="0 0 31.72 43.27" fill="#ffffff" width="16px" height="25px"><path d="M15.64,25.41a8.58,8.58,0,1,1,8.57-8.58A8.59,8.59,0,0,1,15.64,25.41Zm0-14.15a5.58,5.58,0,1,0,5.57,5.57A5.59,5.59,0,0,0,15.64,11.26Z"/><path d="M15.76,43.27l-.93-.88A64,64,0,0,1,2.07,25.6a19.38,19.38,0,0,1,.27-18A14.94,14.94,0,0,1,14.55,0C15,0,16.7,0,17.17,0a15,15,0,0,1,12.21,7.6,19.41,19.41,0,0,1,.29,17.93,19.26,19.26,0,0,1-1.69,3,1.5,1.5,0,0,1-2.08.4,1.52,1.52,0,0,1-.4-2.09A16.13,16.13,0,0,0,27,24.29a16.38,16.38,0,0,0-.17-15.16A12,12,0,0,0,17,3c-.33,0-1.86,0-2.18,0A12,12,0,0,0,4.94,9.13a16.31,16.31,0,0,0-.19,15.11,60.64,60.64,0,0,0,11.18,15,15.55,15.55,0,0,0,1.87-2,1.5,1.5,0,1,1,2.36,1.86,19.9,19.9,0,0,1-3.38,3.36Z"/><circle cx="22.72" cy="32.73" r="1.5"/></svg>